<svg width="1358" height="331" viewBox="0 0 1358 331" fill="none" xmlns="http://www.w3.org/2000/svg">
<rect width="1358" height="331" fill="white"/>
<path d="M502.231 198.877C502.231 199.616 502.194 200.171 502.12 200.54C501.75 200.688 501.455 200.91 501.233 201.206C501.011 201.427 500.641 201.501 500.124 201.427C499.976 202.536 499.607 203.46 499.015 204.199C498.424 204.938 497.796 205.604 497.13 206.195C496.539 206.86 495.948 207.526 495.356 208.191C494.765 208.93 494.395 209.854 494.247 210.963C493.139 211.554 492.03 212.33 490.921 213.291C489.886 214.326 488.962 215.028 488.149 215.398C487.558 215.694 486.93 215.915 486.264 216.063C485.599 216.285 484.934 216.544 484.268 216.839C482.125 217.8 479.907 218.798 477.616 219.833C475.398 220.868 473.07 221.385 470.63 221.385H469.854C469.559 221.681 469.189 221.866 468.746 221.94C468.302 222.088 467.859 222.198 467.415 222.272C466.972 222.346 466.528 222.457 466.084 222.605C465.641 222.753 465.308 222.975 465.087 223.27C464.273 222.975 463.386 222.827 462.426 222.827H461.649C460.393 223.122 459.21 223.344 458.101 223.492C456.993 223.64 455.81 223.714 454.553 223.714C452.336 223.714 450.118 223.566 447.901 223.27C445.683 222.975 443.465 222.716 441.248 222.494C439.843 221.385 438.698 219.981 437.811 218.281C436.924 216.655 436.48 214.917 436.48 213.07C436.48 211.665 436.776 210.335 437.367 209.078C437.958 207.895 438.735 206.823 439.696 205.862H440.028C440.693 205.862 441.359 205.715 442.024 205.419C442.763 205.123 443.465 204.975 444.131 204.975C444.87 204.975 445.461 205.271 445.905 205.862C446.422 206.454 446.792 207.156 447.014 207.969C447.309 208.782 447.494 209.595 447.568 210.408C447.642 211.295 447.679 211.998 447.679 212.515C448.492 212.885 449.342 213.106 450.229 213.18C451.19 213.254 452.151 213.291 453.112 213.291C454.073 213.291 455.145 213.217 456.327 213.07C457.51 212.996 458.693 212.811 459.875 212.515C461.132 212.293 462.315 211.998 463.423 211.628C464.606 211.258 465.604 210.778 466.417 210.187C470.483 209.817 474.068 208.893 477.172 207.415C480.277 205.936 483.566 204.199 487.04 202.203C487.188 201.39 487.484 200.762 487.927 200.319C488.445 199.801 488.704 199.062 488.704 198.101C488.704 197.953 488.667 197.805 488.593 197.657C488.593 197.436 488.593 197.251 488.593 197.103C487.114 195.255 485.562 193.629 483.936 192.224C482.384 190.82 480.351 189.896 477.838 189.453C477.542 188.787 477.061 188.307 476.396 188.011C475.731 187.642 475.029 187.309 474.289 187.013C473.55 186.718 472.848 186.422 472.183 186.126C471.518 185.757 471.037 185.165 470.741 184.352C468.746 183.983 466.676 183.539 464.532 183.022C462.462 182.43 460.688 181.395 459.21 179.917C458.027 179.843 456.882 179.621 455.773 179.252C454.738 178.808 453.703 178.402 452.668 178.032C451.633 177.589 450.562 177.219 449.453 176.923C448.344 176.554 447.198 176.369 446.016 176.369C445.72 175.851 445.313 175.445 444.796 175.149C444.279 174.854 443.687 174.595 443.022 174.373C442.431 174.151 441.839 173.93 441.248 173.708C440.73 173.412 440.324 173.006 440.028 172.488C439.733 172.562 439.511 172.71 439.363 172.932C439.215 173.153 438.956 173.264 438.587 173.264H438.143C437.995 172.821 437.7 172.525 437.256 172.377C436.813 172.156 436.554 171.749 436.48 171.158C435.15 171.084 433.93 170.825 432.821 170.382C431.786 169.938 430.788 169.458 429.827 168.94C428.94 168.349 428.016 167.794 427.055 167.277C426.095 166.76 425.023 166.353 423.84 166.057C423.101 165.466 422.399 164.838 421.733 164.172C421.142 163.433 420.366 163.064 419.405 163.064C419.183 163.064 418.777 163.137 418.185 163.285C418.037 161.955 417.483 161.031 416.522 160.513C415.561 159.922 414.526 159.405 413.418 158.961C412.678 157.039 411.68 155.339 410.424 153.861C409.167 152.382 407.8 151.015 406.321 149.758C406.469 149.315 406.543 148.982 406.543 148.76C406.543 148.021 406.358 147.393 405.989 146.875C405.619 146.284 405.213 145.804 404.769 145.434C403.734 142.108 403.217 138.855 403.217 135.677C403.217 131.242 404.215 127.139 406.21 123.369C408.132 119.526 411.2 116.643 415.413 114.721C415.487 114.129 415.672 113.612 415.968 113.169C416.337 112.725 416.559 112.208 416.633 111.616C417.298 111.616 417.816 111.468 418.185 111.173C418.555 110.877 418.887 110.581 419.183 110.286C419.553 109.916 419.922 109.583 420.292 109.288C420.662 108.992 421.142 108.807 421.733 108.733C424.542 106.294 427.536 104.335 430.714 102.857C433.893 101.305 437.145 99.7154 440.472 98.0891C441.137 97.7935 441.691 97.2391 442.135 96.426H442.8C443.539 96.426 444.094 96.2781 444.463 95.9825C444.907 95.6129 445.535 95.502 446.348 95.6498C446.644 95.2063 447.014 94.9106 447.457 94.7628C447.974 94.615 448.455 94.5041 448.898 94.4302C449.416 94.2823 449.896 94.0975 450.34 93.8758C450.783 93.654 451.079 93.3214 451.227 92.8779H452.003C453.26 92.8779 454.479 92.6931 455.662 92.3235C456.845 91.88 458.027 91.3995 459.21 90.8821H459.986C461.465 90.8821 462.832 90.6234 464.089 90.1059C465.419 89.5146 466.824 89.108 468.302 88.8863C468.893 88.7384 469.485 88.7015 470.076 88.7754C470.667 88.8493 471.259 88.8863 471.85 88.8863C472.22 88.8863 472.663 88.8493 473.181 88.7754C473.698 88.7015 474.068 88.4797 474.289 88.1101H474.511C474.955 88.1101 475.213 88.258 475.287 88.5537C475.361 88.8493 475.583 88.9972 475.953 88.9972C476.47 88.9972 476.987 88.9232 477.505 88.7754C478.022 88.6276 478.54 88.5537 479.057 88.5537C481.275 88.5537 483.455 88.7754 485.599 89.2189C487.817 89.6624 489.997 90.069 492.141 90.4386C492.289 91.3256 492.658 91.9539 493.25 92.3235C493.915 92.6931 494.617 93.0257 495.356 93.3214V93.7649C495.356 94.3563 495.504 94.8367 495.8 95.2063C495.504 96.2412 494.987 97.0173 494.247 97.5348C493.508 98.0522 492.695 98.4957 491.808 98.8653C492.178 99.161 492.4 99.5675 492.473 100.085C492.547 100.602 492.584 101.083 492.584 101.526V102.857L492.03 102.746C490.847 102.746 490.256 103.3 490.256 104.409C489.295 103.818 488.223 103.448 487.04 103.3C485.932 103.153 484.823 103.079 483.714 103.079C482.236 103.079 480.683 103.153 479.057 103.3C477.431 103.374 475.842 103.337 474.289 103.19C473.698 103.929 472.959 104.483 472.072 104.853C471.185 105.148 470.298 105.296 469.411 105.296C468.45 105.296 467.526 105.111 466.639 104.742C465.752 104.298 465.124 103.67 464.754 102.857C464.384 102.709 464.052 102.635 463.756 102.635H462.758C461.575 102.635 460.393 102.783 459.21 103.079C458.101 103.3 456.956 103.596 455.773 103.966C454.59 104.261 453.407 104.594 452.225 104.964C451.116 105.259 449.97 105.444 448.788 105.518C448.344 106.109 447.753 106.516 447.014 106.738C446.274 106.959 445.683 107.366 445.239 107.957C443.687 108.253 442.283 108.77 441.026 109.51C439.769 110.175 438.55 110.914 437.367 111.727L433.93 114.056C432.821 114.795 431.565 115.423 430.16 115.94C429.125 117.049 428.164 117.936 427.277 118.602C426.39 119.267 425.244 119.858 423.84 120.376C422.953 120.671 422.436 121.115 422.288 121.706C422.214 122.297 421.918 122.889 421.401 123.48C420.957 123.998 420.403 124.404 419.738 124.7C419.146 124.922 418.629 125.328 418.185 125.919C417.816 126.437 417.52 127.065 417.298 127.804C417.15 128.47 416.966 129.135 416.744 129.8C416.522 130.465 416.263 131.131 415.968 131.796C415.672 132.387 415.229 132.905 414.637 133.348C414.637 133.644 414.6 133.94 414.526 134.235C414.526 134.531 414.526 134.79 414.526 135.011C414.526 136.046 414.637 137.118 414.859 138.227C415.155 139.262 415.339 140.297 415.413 141.332C416.892 143.919 418.629 146.284 420.625 148.428C422.62 150.497 424.764 152.419 427.055 154.193C429.347 155.967 431.712 157.631 434.152 159.183C436.665 160.735 439.141 162.25 441.58 163.729C442.468 163.655 443.281 163.766 444.02 164.061C444.759 164.283 445.535 164.431 446.348 164.505C447.235 165.17 448.27 165.688 449.453 166.057L453.001 167.166C454.184 167.536 455.329 167.979 456.438 168.497C457.547 168.94 458.471 169.568 459.21 170.382C459.58 170.455 459.912 170.566 460.208 170.714C460.504 170.788 460.836 170.825 461.206 170.825C461.649 170.825 461.908 170.677 461.982 170.382C465.308 171.638 468.561 173.043 471.739 174.595C474.918 176.073 478.281 177.219 481.829 178.032C483.234 179.215 484.786 180.25 486.486 181.137C488.186 182.024 489.886 182.948 491.586 183.909C493.287 184.796 494.913 185.794 496.465 186.902C498.017 187.937 499.385 189.194 500.568 190.672C500.715 192.077 501.011 193.444 501.455 194.775C501.972 196.031 502.231 197.399 502.231 198.877ZM634.619 175.371C634.323 176.628 633.732 177.626 632.845 178.365C632.032 179.03 631.071 179.547 629.962 179.917C628.853 180.287 627.671 180.545 626.414 180.693C625.231 180.841 624.159 180.952 623.198 181.026C622.164 181.543 621.24 182.135 620.426 182.8C619.613 183.391 618.763 183.983 617.876 184.574C611.371 185.387 604.941 186.385 598.584 187.568C592.227 188.75 585.796 189.748 579.291 190.561C578.404 191.153 577.258 191.559 575.854 191.781C574.449 191.929 572.971 192.077 571.418 192.224C569.94 192.298 568.462 192.483 566.983 192.779C565.505 193.001 564.211 193.444 563.103 194.109C558.298 194.331 553.641 195.144 549.132 196.549C548.319 196.327 547.469 196.142 546.582 195.994C545.769 195.846 544.956 195.773 544.143 195.773C543.551 195.773 542.886 195.846 542.147 195.994C541.408 196.068 540.816 196.401 540.373 196.992C538.599 195.588 536.492 195.07 534.053 195.44C532.057 194.553 530.283 193.444 528.73 192.114C527.252 190.783 526.106 189.083 525.293 187.013C525.367 185.831 525.367 184.943 525.293 184.352C525.219 183.687 524.702 182.985 523.741 182.245C523.741 181.728 523.889 181.321 524.185 181.026C524.554 180.73 524.776 180.324 524.85 179.806C524.554 179.289 524.406 178.66 524.406 177.921C524.406 176.665 524.628 175.408 525.072 174.151C525.515 172.821 525.589 171.527 525.293 170.271C526.328 168.571 527.511 166.981 528.841 165.503C530.172 163.951 531.502 162.472 532.833 161.068C534.237 159.589 535.605 158.111 536.935 156.633C538.34 155.154 539.633 153.602 540.816 151.976C542.221 151.532 543.477 150.867 544.586 149.98C545.769 149.019 546.878 148.021 547.912 146.986C549.021 145.951 550.13 144.954 551.239 143.993C552.347 143.032 553.641 142.255 555.119 141.664C555.267 141.221 555.489 140.851 555.785 140.555C556.154 140.186 556.524 139.853 556.893 139.557C557.263 139.262 557.596 138.929 557.891 138.56C558.261 138.19 558.52 137.746 558.668 137.229H557.67C554.343 137.229 551.017 137.451 547.691 137.894C544.364 138.264 541.038 138.744 537.712 139.336C534.459 139.853 531.207 140.408 527.954 140.999C524.702 141.59 521.413 142.071 518.086 142.44C516.83 143.106 515.462 143.697 513.984 144.214C512.505 144.732 511.027 145.249 509.549 145.767C508.144 146.284 506.777 146.875 505.446 147.541C504.042 148.206 502.822 149.019 501.787 149.98C501.565 150.054 501.233 150.091 500.789 150.091C499.976 150.091 499.274 149.943 498.683 149.647C498.091 149.278 497.426 149.019 496.687 148.871C496.539 147.689 496.317 146.58 496.022 145.545C495.652 144.436 495.467 143.29 495.467 142.108C495.467 141.147 495.615 140.334 495.911 139.668C496.946 139.668 497.685 139.336 498.128 138.67C498.498 138.005 499.089 137.414 499.902 136.896C500.124 137.118 500.346 137.229 500.568 137.229C500.937 137.229 501.27 137.081 501.565 136.786C501.861 136.49 502.231 136.194 502.674 135.899C503.118 135.603 503.635 135.344 504.226 135.122C504.818 134.901 505.594 134.827 506.555 134.901C508.772 133.718 510.842 132.979 512.764 132.683C514.76 132.387 516.94 132.055 519.306 131.685C519.897 131.537 520.304 131.353 520.526 131.131C520.747 130.909 521.006 130.576 521.302 130.133L523.63 130.244C526.809 130.392 529.987 130.207 533.166 129.689C536.344 129.098 539.486 128.47 542.59 127.804C545.769 127.139 548.947 126.585 552.126 126.141C555.378 125.624 558.631 125.513 561.883 125.809C562.696 125.439 563.509 125.217 564.322 125.143C565.209 125.069 566.096 125.032 566.983 125.032C568.166 125.032 569.46 125.143 570.864 125.365C572.269 125.587 573.562 125.993 574.745 126.585C576.001 127.176 576.999 127.989 577.739 129.024C578.552 129.985 578.958 131.205 578.958 132.683C578.958 133.496 578.773 134.235 578.404 134.901C578.034 135.566 577.591 136.194 577.073 136.786C576.556 137.377 576.001 137.968 575.41 138.56C574.819 139.077 574.264 139.594 573.747 140.112C572.934 140.999 572.158 141.96 571.418 142.995C570.753 143.956 569.94 144.843 568.979 145.656C568.462 145.582 568.055 145.693 567.76 145.988C567.538 146.284 567.168 146.432 566.651 146.432C565.69 146.875 565.135 147.689 564.988 148.871C562.992 149.684 561.07 150.645 559.222 151.754C557.374 152.863 555.859 154.378 554.676 156.3C553.124 157.261 551.645 158.37 550.241 159.626C548.91 160.809 547.617 162.066 546.36 163.396C545.103 164.727 543.847 166.094 542.59 167.499C541.408 168.829 540.151 170.123 538.82 171.379C538.673 172.488 538.414 173.523 538.044 174.484C537.675 175.445 537.268 176.443 536.825 177.478C536.825 178.291 537.083 178.993 537.601 179.584C538.118 180.176 538.377 180.952 538.377 181.913C540.225 182.282 542.036 182.578 543.81 182.8C545.658 182.948 547.543 183.022 549.465 183.022C551.313 183.022 553.161 182.911 555.009 182.689C556.857 182.393 558.594 181.839 560.22 181.026C561.329 181.321 562.474 181.469 563.657 181.469C565.283 181.469 566.836 181.321 568.314 181.026C569.866 180.656 571.418 180.508 572.971 180.582C574.819 179.917 576.704 179.474 578.626 179.252C580.621 178.956 582.58 178.734 584.502 178.586C586.424 178.365 588.346 178.106 590.268 177.81C592.264 177.515 594.185 176.96 596.033 176.147C597.068 176.369 598.029 176.406 598.916 176.258C599.803 176.11 600.764 176.036 601.799 176.036C602.538 176.036 603.425 176.258 604.46 176.702C605.643 176.11 606.862 175.593 608.119 175.149C609.45 174.706 610.78 174.484 612.111 174.484C612.628 174.484 613.146 174.521 613.663 174.595C614.18 174.669 614.661 174.817 615.104 175.038C615.252 174.964 615.622 174.817 616.213 174.595C616.804 174.373 617.433 174.151 618.098 173.93C618.763 173.708 619.392 173.523 619.983 173.375C620.574 173.153 620.944 173.043 621.092 173.043C621.683 173.043 621.942 173.227 621.868 173.597C621.868 173.893 622.053 174.04 622.422 174.04C623.679 174.04 624.899 173.819 626.081 173.375C627.264 172.858 628.484 172.599 629.74 172.599C630.258 172.599 630.738 172.636 631.182 172.71C631.625 172.784 632.143 172.895 632.734 173.043C633.03 173.486 633.288 173.967 633.51 174.484C633.732 174.928 634.101 175.223 634.619 175.371ZM680.633 183.022C680.633 183.761 680.411 184.389 679.968 184.907C679.598 185.35 679.118 185.757 678.526 186.126C678.009 186.496 677.455 186.828 676.863 187.124C676.346 187.42 675.865 187.789 675.422 188.233C675.126 188.529 674.904 188.898 674.757 189.342C674.683 189.711 674.498 189.97 674.202 190.118C673.759 190.487 673.278 190.709 672.761 190.783C672.243 190.857 671.689 190.968 671.098 191.116C670.58 191.19 670.063 191.337 669.545 191.559C669.028 191.707 668.584 192.04 668.215 192.557C664.741 192.927 661.303 193.407 657.903 193.999C654.577 194.59 651.14 194.886 647.592 194.886C646.926 194.886 646.187 194.959 645.374 195.107C644.635 195.181 643.933 195.255 643.267 195.329C641.715 195.477 640.163 195.588 638.61 195.662C637.132 195.736 635.617 195.773 634.064 195.773C631.921 195.773 629.777 195.699 627.634 195.551C625.49 195.329 623.383 194.996 621.314 194.553C620.796 194.183 620.205 193.888 619.539 193.666C618.874 193.444 618.172 193.222 617.433 193.001C616.768 192.779 616.139 192.52 615.548 192.224C614.957 191.929 614.513 191.485 614.217 190.894C613.109 190.82 612.111 190.598 611.224 190.229C610.411 189.859 609.634 189.453 608.895 189.009C608.23 188.492 607.528 187.974 606.789 187.457C606.049 186.939 605.199 186.496 604.238 186.126C603.499 185.091 602.723 184.093 601.91 183.132C601.171 182.098 600.247 181.248 599.138 180.582C598.916 179.178 598.547 177.773 598.029 176.369C597.586 174.964 597.105 173.597 596.588 172.266C596.144 170.862 595.775 169.458 595.479 168.053C595.109 166.649 594.925 165.207 594.925 163.729C594.925 162.694 595.072 161.437 595.368 159.959C595.664 158.481 596.033 157.002 596.477 155.524C596.994 153.972 597.586 152.53 598.251 151.2C598.916 149.869 599.581 148.797 600.247 147.984C600.468 147.762 600.727 147.578 601.023 147.43C601.319 147.282 601.577 147.06 601.799 146.765C602.464 146.025 603.166 145.434 603.906 144.99C604.645 144.473 605.421 143.882 606.234 143.216C606.53 142.921 606.752 142.588 606.899 142.219C607.121 141.849 607.417 141.516 607.786 141.221C608.008 141.073 608.304 141.036 608.673 141.11C609.117 141.184 609.487 141.11 609.782 140.888C610.078 140.666 610.226 140.408 610.226 140.112C610.226 139.816 610.337 139.557 610.558 139.336C610.632 139.262 610.854 139.262 611.224 139.336C611.593 139.336 611.815 139.336 611.889 139.336C612.406 139.336 612.998 139.003 613.663 138.338C614.328 137.599 614.883 137.118 615.326 136.896C615.844 136.601 616.361 136.416 616.878 136.342C617.396 136.194 617.95 135.972 618.542 135.677C619.355 135.233 620.131 134.901 620.87 134.679C621.683 134.383 622.496 134.051 623.309 133.681C623.753 133.533 624.159 133.274 624.529 132.905C624.899 132.535 625.268 132.276 625.638 132.129C626.303 131.907 627.005 131.759 627.744 131.685C628.558 131.537 629.297 131.426 629.962 131.353C630.701 131.205 631.403 131.057 632.069 130.909C632.808 130.687 633.473 130.318 634.064 129.8H634.951C636.282 129.8 637.576 129.615 638.832 129.246C640.089 128.876 641.382 128.691 642.713 128.691C643.083 128.691 643.637 128.765 644.376 128.913C644.967 128.544 645.633 128.359 646.372 128.359C647.629 128.359 648.885 128.691 650.142 129.357C651.398 129.948 652.692 130.244 654.022 130.244H654.688C654.983 130.244 655.279 130.207 655.575 130.133C656.388 130.946 657.349 131.389 658.458 131.463C659.64 131.537 660.638 131.87 661.451 132.461C661.969 132.905 662.375 133.422 662.671 134.014C663.041 134.605 663.336 135.233 663.558 135.899L664.223 137.894C664.445 138.56 664.741 139.151 665.11 139.668C664.741 142.329 663.632 144.473 661.784 146.099C660.01 147.652 657.755 148.428 655.02 148.428C653.986 148.428 653.099 148.317 652.359 148.095C651.694 147.799 651.066 147.504 650.474 147.208C649.957 146.912 649.403 146.617 648.811 146.321C648.22 146.025 647.555 145.804 646.815 145.656C647.629 144.177 648.146 142.588 648.368 140.888C647.555 140.518 646.742 140.26 645.928 140.112C645.115 139.964 644.339 139.705 643.6 139.336C641.604 139.853 639.645 140.223 637.723 140.444C635.875 140.592 634.138 141.368 632.512 142.773C632.143 142.699 631.736 142.625 631.293 142.551C630.923 142.477 630.553 142.44 630.184 142.44C629.74 142.44 628.853 142.773 627.523 143.438C626.192 144.03 624.751 144.732 623.198 145.545C621.72 146.358 620.279 147.171 618.874 147.984C617.544 148.797 616.62 149.352 616.102 149.647C615.511 150.017 614.993 150.46 614.55 150.978C614.106 151.495 613.663 152.05 613.219 152.641C612.776 153.158 612.332 153.676 611.889 154.193C611.445 154.637 610.891 154.969 610.226 155.191C610.078 156.004 609.819 156.707 609.45 157.298C609.08 157.889 608.673 158.518 608.23 159.183C608.156 160.513 608.008 161.844 607.786 163.174C607.639 164.505 607.565 165.836 607.565 167.166V168.607C607.565 169.051 607.639 169.458 607.786 169.827C608.526 170.788 609.117 171.86 609.56 173.043C610.078 174.225 610.928 175.038 612.111 175.482C612.185 175.778 612.148 175.962 612 176.036C611.926 176.11 611.852 176.295 611.778 176.591C612.222 177.404 612.776 178.069 613.441 178.586C614.18 179.03 614.92 179.51 615.659 180.028C616.398 180.471 617.1 180.952 617.765 181.469C618.431 181.987 618.948 182.652 619.318 183.465C620.426 183.465 621.461 183.65 622.422 184.019C623.457 184.389 624.418 184.796 625.305 185.239C626.266 185.683 627.153 186.089 627.966 186.459C628.853 186.828 629.74 187.013 630.627 187.013C631.44 187.013 632.18 186.902 632.845 186.681C634.767 187.272 636.689 187.715 638.61 188.011C640.606 188.233 642.602 188.344 644.598 188.344C647.037 188.344 649.476 188.196 651.916 187.9C654.355 187.605 656.794 187.346 659.234 187.124C660.121 186.976 660.971 186.902 661.784 186.902C662.597 186.902 663.41 186.828 664.223 186.681C665.258 186.533 666.219 186.052 667.106 185.239C668.067 184.426 668.991 183.835 669.878 183.465C670.691 183.983 671.652 184.241 672.761 184.241C674.017 184.241 675.237 184.056 676.42 183.687C677.603 183.243 678.822 183.022 680.079 183.022H680.633ZM806.147 175.371C805.851 176.628 805.26 177.626 804.373 178.365C803.56 179.03 802.599 179.547 801.49 179.917C800.381 180.287 799.199 180.545 797.942 180.693C796.759 180.841 795.687 180.952 794.727 181.026C793.692 181.543 792.768 182.135 791.955 182.8C791.141 183.391 790.291 183.983 789.404 184.574C782.9 185.387 776.469 186.385 770.112 187.568C763.755 188.75 757.324 189.748 750.819 190.561C749.932 191.153 748.786 191.559 747.382 191.781C745.977 191.929 744.499 192.077 742.947 192.224C741.468 192.298 739.99 192.483 738.511 192.779C737.033 193.001 735.739 193.444 734.631 194.109C729.826 194.331 725.169 195.144 720.66 196.549C719.847 196.327 718.997 196.142 718.11 195.994C717.297 195.846 716.484 195.773 715.671 195.773C715.079 195.773 714.414 195.846 713.675 195.994C712.936 196.068 712.344 196.401 711.901 196.992C710.127 195.588 708.02 195.07 705.581 195.44C703.585 194.553 701.811 193.444 700.259 192.114C698.78 190.783 697.634 189.083 696.821 187.013C696.895 185.831 696.895 184.943 696.821 184.352C696.747 183.687 696.23 182.985 695.269 182.245C695.269 181.728 695.417 181.321 695.713 181.026C696.082 180.73 696.304 180.324 696.378 179.806C696.082 179.289 695.934 178.66 695.934 177.921C695.934 176.665 696.156 175.408 696.6 174.151C697.043 172.821 697.117 171.527 696.821 170.271C697.856 168.571 699.039 166.981 700.369 165.503C701.7 163.951 703.031 162.472 704.361 161.068C705.766 159.589 707.133 158.111 708.464 156.633C709.868 155.154 711.162 153.602 712.344 151.976C713.749 151.532 715.005 150.867 716.114 149.98C717.297 149.019 718.406 148.021 719.44 146.986C720.549 145.951 721.658 144.954 722.767 143.993C723.876 143.032 725.169 142.255 726.648 141.664C726.795 141.221 727.017 140.851 727.313 140.555C727.682 140.186 728.052 139.853 728.422 139.557C728.791 139.262 729.124 138.929 729.419 138.56C729.789 138.19 730.048 137.746 730.196 137.229H729.198C725.871 137.229 722.545 137.451 719.219 137.894C715.892 138.264 712.566 138.744 709.24 139.336C705.987 139.853 702.735 140.408 699.482 140.999C696.23 141.59 692.941 142.071 689.614 142.44C688.358 143.106 686.99 143.697 685.512 144.214C684.033 144.732 682.555 145.249 681.077 145.767C679.672 146.284 678.305 146.875 676.974 147.541C675.57 148.206 674.35 149.019 673.315 149.98C673.093 150.054 672.761 150.091 672.317 150.091C671.504 150.091 670.802 149.943 670.211 149.647C669.619 149.278 668.954 149.019 668.215 148.871C668.067 147.689 667.845 146.58 667.55 145.545C667.18 144.436 666.995 143.29 666.995 142.108C666.995 141.147 667.143 140.334 667.439 139.668C668.474 139.668 669.213 139.336 669.656 138.67C670.026 138.005 670.617 137.414 671.43 136.896C671.652 137.118 671.874 137.229 672.096 137.229C672.465 137.229 672.798 137.081 673.093 136.786C673.389 136.49 673.759 136.194 674.202 135.899C674.646 135.603 675.163 135.344 675.755 135.122C676.346 134.901 677.122 134.827 678.083 134.901C680.301 133.718 682.37 132.979 684.292 132.683C686.288 132.387 688.469 132.055 690.834 131.685C691.425 131.537 691.832 131.353 692.054 131.131C692.275 130.909 692.534 130.576 692.83 130.133L695.158 130.244C698.337 130.392 701.515 130.207 704.694 129.689C707.872 129.098 711.014 128.47 714.118 127.804C717.297 127.139 720.475 126.585 723.654 126.141C726.906 125.624 730.159 125.513 733.411 125.809C734.224 125.439 735.037 125.217 735.85 125.143C736.737 125.069 737.624 125.032 738.511 125.032C739.694 125.032 740.988 125.143 742.392 125.365C743.797 125.587 745.09 125.993 746.273 126.585C747.529 127.176 748.527 127.989 749.267 129.024C750.08 129.985 750.486 131.205 750.486 132.683C750.486 133.496 750.301 134.235 749.932 134.901C749.562 135.566 749.119 136.194 748.601 136.786C748.084 137.377 747.529 137.968 746.938 138.56C746.347 139.077 745.792 139.594 745.275 140.112C744.462 140.999 743.686 141.96 742.947 142.995C742.281 143.956 741.468 144.843 740.507 145.656C739.99 145.582 739.583 145.693 739.288 145.988C739.066 146.284 738.696 146.432 738.179 146.432C737.218 146.875 736.663 147.689 736.516 148.871C734.52 149.684 732.598 150.645 730.75 151.754C728.902 152.863 727.387 154.378 726.204 156.3C724.652 157.261 723.173 158.37 721.769 159.626C720.438 160.809 719.145 162.066 717.888 163.396C716.632 164.727 715.375 166.094 714.118 167.499C712.936 168.829 711.679 170.123 710.348 171.379C710.201 172.488 709.942 173.523 709.572 174.484C709.203 175.445 708.796 176.443 708.353 177.478C708.353 178.291 708.611 178.993 709.129 179.584C709.646 180.176 709.905 180.952 709.905 181.913C711.753 182.282 713.564 182.578 715.338 182.8C717.186 182.948 719.071 183.022 720.993 183.022C722.841 183.022 724.689 182.911 726.537 182.689C728.385 182.393 730.122 181.839 731.748 181.026C732.857 181.321 734.002 181.469 735.185 181.469C736.811 181.469 738.364 181.321 739.842 181.026C741.394 180.656 742.947 180.508 744.499 180.582C746.347 179.917 748.232 179.474 750.154 179.252C752.149 178.956 754.108 178.734 756.03 178.586C757.952 178.365 759.874 178.106 761.796 177.81C763.792 177.515 765.713 176.96 767.561 176.147C768.596 176.369 769.557 176.406 770.444 176.258C771.331 176.11 772.292 176.036 773.327 176.036C774.066 176.036 774.953 176.258 775.988 176.702C777.171 176.11 778.391 175.593 779.647 175.149C780.978 174.706 782.308 174.484 783.639 174.484C784.156 174.484 784.674 174.521 785.191 174.595C785.708 174.669 786.189 174.817 786.632 175.038C786.78 174.964 787.15 174.817 787.741 174.595C788.333 174.373 788.961 174.151 789.626 173.93C790.291 173.708 790.92 173.523 791.511 173.375C792.102 173.153 792.472 173.043 792.62 173.043C793.211 173.043 793.47 173.227 793.396 173.597C793.396 173.893 793.581 174.04 793.95 174.04C795.207 174.04 796.427 173.819 797.609 173.375C798.792 172.858 800.012 172.599 801.268 172.599C801.786 172.599 802.266 172.636 802.71 172.71C803.153 172.784 803.671 172.895 804.262 173.043C804.558 173.486 804.816 173.967 805.038 174.484C805.26 174.928 805.63 175.223 806.147 175.371ZM839.189 132.461V132.905C838.671 133.053 838.412 133.422 838.412 134.014C837.599 134.383 836.749 134.679 835.862 134.901C834.975 135.048 834.125 135.307 833.312 135.677C832.499 135.603 831.649 135.566 830.762 135.566C829.949 135.492 829.136 135.455 828.323 135.455C826.105 135.455 823.887 135.529 821.67 135.677C819.452 135.825 817.235 135.825 815.017 135.677C813.982 136.268 812.837 136.749 811.58 137.118C810.397 137.414 809.252 137.562 808.143 137.562C807.256 137.562 806.48 137.451 805.814 137.229C804.04 138.116 802.081 138.855 799.938 139.447C797.868 140.038 795.761 140.629 793.618 141.221C791.474 141.738 789.404 142.366 787.409 143.106C785.487 143.771 783.787 144.732 782.308 145.988C782.16 147.023 782.049 148.058 781.976 149.093C781.902 150.054 781.865 151.015 781.865 151.976C781.865 153.011 781.902 153.972 781.976 154.859C782.123 155.746 782.382 156.633 782.752 157.52C783.121 157.668 783.528 157.778 783.971 157.852C784.489 157.926 784.932 157.963 785.302 157.963C785.671 157.963 786.041 157.926 786.411 157.852C786.78 157.704 787.039 157.446 787.187 157.076C788.296 156.928 789.404 156.891 790.513 156.965C791.622 156.965 792.731 156.965 793.839 156.965C794.948 156.965 796.02 156.928 797.055 156.854C798.164 156.781 799.236 156.596 800.27 156.3C801.453 156.004 802.599 155.82 803.708 155.746C804.89 155.672 806.036 155.598 807.145 155.524C808.254 155.45 809.399 155.339 810.582 155.191C811.765 154.969 812.984 154.563 814.241 153.972C815.202 154.341 816.163 154.526 817.124 154.526C818.159 154.526 819.157 154.6 820.118 154.748C820.635 155.117 821.042 155.524 821.337 155.967C821.707 156.411 821.892 156.928 821.892 157.52C821.892 158.555 821.522 159.589 820.783 160.624C820.044 161.659 819.452 162.62 819.009 163.507H817.789C816.015 163.507 814.278 163.766 812.578 164.283C810.952 164.727 809.288 165.281 807.588 165.946C805.962 166.538 804.299 167.092 802.599 167.61C800.973 168.053 799.273 168.275 797.498 168.275C797.203 168.275 797.018 168.46 796.944 168.829C796.944 169.125 796.87 169.347 796.722 169.494C796.353 169.421 795.798 169.384 795.059 169.384C793.359 169.384 791.733 169.568 790.181 169.938C788.628 170.308 787.039 170.492 785.413 170.492C784.969 170.492 784.526 170.492 784.082 170.492C783.639 170.418 783.195 170.345 782.752 170.271C782.382 170.862 781.902 171.269 781.31 171.49C780.719 171.638 780.165 171.934 779.647 172.377C779.425 173.043 779.278 173.856 779.204 174.817C779.204 175.778 779.167 176.775 779.093 177.81C779.093 178.771 779.019 179.695 778.871 180.582C778.723 181.469 778.427 182.172 777.984 182.689C778.058 183.059 778.354 183.206 778.871 183.132C779.388 182.985 779.647 183.206 779.647 183.798C779.647 184.463 779.573 185.165 779.425 185.904C779.278 186.644 779.204 187.383 779.204 188.122C779.204 189.526 779.351 191.079 779.647 192.779C780.017 194.405 780.534 195.92 781.199 197.325C781.939 198.729 782.9 199.912 784.082 200.873C785.265 201.76 786.743 202.203 788.517 202.203C789.7 202.203 790.809 201.982 791.844 201.538C792.879 201.095 793.729 200.356 794.394 199.321L794.948 199.21C795.244 199.21 795.503 199.247 795.724 199.321C796.02 199.395 796.316 199.432 796.611 199.432C797.055 199.432 797.609 199.173 798.275 198.655C799.014 198.064 799.79 197.399 800.603 196.66C801.49 195.92 802.377 195.218 803.264 194.553C804.151 193.814 805.001 193.296 805.814 193.001C806.332 191.966 806.812 190.931 807.256 189.896C807.773 188.861 808.512 188.048 809.473 187.457V184.241C810.212 183.428 810.989 182.689 811.802 182.024C812.689 181.358 813.354 180.508 813.798 179.474C814.167 179.621 814.5 179.732 814.795 179.806C815.165 179.88 815.535 179.917 815.904 179.917C816.274 179.917 816.643 179.88 817.013 179.806C817.456 179.732 817.863 179.621 818.233 179.474C818.824 180.287 819.267 181.211 819.563 182.245C819.933 183.206 820.376 184.13 820.894 185.017C820.228 186.348 819.452 187.937 818.565 189.785C817.678 191.633 816.717 193.481 815.682 195.329C814.648 197.177 813.539 198.951 812.356 200.651C811.247 202.277 810.139 203.534 809.03 204.421C808.808 204.643 808.328 204.901 807.588 205.197C806.775 205.789 806.036 206.343 805.371 206.86C804.706 207.452 804.077 208.117 803.486 208.856C801.342 209.521 799.273 210.408 797.277 211.517C795.355 212.626 793.433 213.698 791.511 214.733C790.624 214.511 789.663 214.4 788.628 214.4C787.741 214.4 786.854 214.437 785.967 214.511C785.08 214.659 784.119 214.733 783.084 214.733C782.789 214.363 782.345 214.104 781.754 213.957C781.236 213.883 781.052 213.513 781.199 212.848C778.686 212.7 776.653 211.998 775.101 210.741C773.549 209.558 772.218 208.08 771.11 206.306C770.075 204.532 769.225 202.61 768.559 200.54C767.894 198.471 767.192 196.475 766.453 194.553V194.22C766.453 193.851 766.6 193.629 766.896 193.555C767.192 193.481 767.34 193.259 767.34 192.89C767.34 192.742 767.303 192.631 767.229 192.557C767.007 191.744 766.822 191.042 766.674 190.45C766.527 189.859 766.453 189.157 766.453 188.344C766.453 187.161 766.527 186.015 766.674 184.907C766.822 183.724 766.896 182.541 766.896 181.358C766.896 180.176 766.748 179.141 766.453 178.254C766.748 177.884 767.007 177.404 767.229 176.812C767.377 176.147 767.488 175.482 767.561 174.817C767.635 174.151 767.672 173.486 767.672 172.821C767.746 172.156 767.857 171.564 768.005 171.047C767.709 170.234 767.451 169.531 767.229 168.94C767.007 168.275 766.896 167.499 766.896 166.612V165.836C767.635 164.579 768.264 163.285 768.781 161.955C769.299 160.624 769.853 159.257 770.444 157.852V157.52C770.444 155.376 770.37 153.232 770.223 151.089C770.075 148.945 770.001 146.801 770.001 144.658V142.551C770.001 141.812 770.038 141.11 770.112 140.444C770.703 140.149 771.146 139.742 771.442 139.225C771.738 138.707 772.181 138.301 772.773 138.005H776.432L777.097 136.896C777.319 136.527 777.467 136.12 777.54 135.677C778.354 135.455 779.13 135.159 779.869 134.79C780.682 134.346 781.421 133.903 782.086 133.459C783.121 132.868 784.045 132.35 784.858 131.907C785.745 131.389 786.595 130.983 787.409 130.687C788.296 130.318 789.22 130.022 790.181 129.8C791.141 129.578 792.25 129.394 793.507 129.246C794.098 129.246 794.468 129.135 794.616 128.913C794.837 128.691 795.133 128.433 795.503 128.137C796.39 128.285 797.277 128.433 798.164 128.581C799.051 128.654 799.938 128.691 800.825 128.691C802.599 128.691 804.262 128.359 805.814 127.694C808.032 127.694 810.212 127.657 812.356 127.583C814.574 127.509 816.791 127.472 819.009 127.472C820.931 127.472 822.853 127.546 824.774 127.694C826.696 127.841 828.581 128.1 830.429 128.47C831.094 128.248 831.834 128.137 832.647 128.137C833.534 128.137 834.421 128.248 835.308 128.47C836.269 128.618 837.193 128.618 838.08 128.47C838.154 129.283 838.338 129.985 838.634 130.576C839.004 131.094 839.189 131.722 839.189 132.461ZM920.462 141.332C920.462 142.366 920.425 143.401 920.351 144.436C920.277 145.471 920.166 146.506 920.019 147.541C919.501 148.28 918.984 148.945 918.466 149.536C918.023 150.054 917.727 150.719 917.579 151.532C916.766 152.124 915.842 152.937 914.807 153.972C913.846 155.006 913.44 156.041 913.588 157.076H912.035C911.148 158.407 910.113 159.552 908.931 160.513C907.748 161.474 906.491 162.398 905.161 163.285L901.28 165.836C900.024 166.649 898.841 167.61 897.732 168.718C897.141 168.792 896.66 168.903 896.291 169.051C895.921 169.199 895.441 169.236 894.849 169.162C892.558 170.64 890.155 171.934 887.642 173.043C885.203 174.151 882.727 175.26 880.213 176.369C877.774 177.404 875.335 178.513 872.895 179.695C870.456 180.878 868.128 182.245 865.91 183.798C865.688 183.724 865.393 183.687 865.023 183.687C864.358 183.687 863.693 183.798 863.027 184.019C862.362 184.167 861.697 184.241 861.031 184.241C860.736 184.241 860.329 184.204 859.812 184.13C859.368 184.056 859.036 183.946 858.814 183.798C858.444 183.576 858.112 183.243 857.816 182.8C857.52 182.356 857.299 181.876 857.151 181.358C857.003 180.767 856.892 180.213 856.818 179.695C856.744 179.178 856.707 178.734 856.707 178.365C856.707 177.921 856.744 177.441 856.818 176.923C856.892 176.406 857.003 175.925 857.151 175.482C859.294 175.334 861.438 174.78 863.582 173.819C865.799 172.858 867.906 171.934 869.902 171.047C870.419 170.825 870.826 170.566 871.121 170.271C871.491 169.901 871.861 169.605 872.23 169.384C872.6 169.088 873.006 168.829 873.45 168.607C873.893 168.386 874.448 168.275 875.113 168.275H875.446C880.102 166.131 884.648 163.803 889.084 161.29C893.593 158.776 898.065 156.226 902.5 153.639C902.722 152.974 903.054 152.308 903.498 151.643C904.015 150.978 904.496 150.35 904.939 149.758C905.383 149.093 905.789 148.428 906.159 147.762C906.528 147.097 906.713 146.432 906.713 145.767C906.713 144.436 906.085 143.327 904.828 142.44H904.385C903.498 142.44 902.722 142.329 902.056 142.108C901.391 141.812 900.763 141.553 900.171 141.332C899.58 141.036 898.915 140.814 898.176 140.666C897.436 140.444 896.586 140.371 895.625 140.444C895.256 140.149 894.664 139.89 893.851 139.668C893.038 139.447 892.373 139.336 891.856 139.336C889.194 139.336 886.57 139.521 883.983 139.89C881.396 140.186 878.809 140.371 876.222 140.444C875.556 140.814 874.928 141.147 874.337 141.442C873.745 141.738 873.043 141.886 872.23 141.886C871.861 141.886 871.528 141.886 871.232 141.886C870.937 141.812 870.604 141.738 870.234 141.664C868.83 142.255 867.241 142.773 865.467 143.216C863.693 143.586 861.919 144.067 860.144 144.658C858.444 145.175 856.855 145.841 855.377 146.654C853.898 147.467 852.753 148.576 851.939 149.98C851.939 150.35 852.013 150.682 852.161 150.978C852.309 151.2 852.383 151.495 852.383 151.865V152.308C851.939 152.752 851.644 153.269 851.496 153.861C851.348 154.378 851.237 154.933 851.163 155.524C851.089 156.041 850.979 156.596 850.831 157.187C850.757 157.704 850.498 158.222 850.055 158.739C850.35 159.848 850.498 161.068 850.498 162.398C850.498 163.877 850.387 165.355 850.165 166.833C850.018 168.312 849.944 169.79 849.944 171.269C849.944 172.673 850.092 173.93 850.387 175.038C849.944 175.482 849.759 176.147 849.833 177.034C849.907 177.921 849.722 178.586 849.278 179.03C849.278 179.621 849.426 180.028 849.722 180.25C850.092 180.471 850.313 180.841 850.387 181.358C850.092 182.615 849.944 183.983 849.944 185.461C849.944 187.605 850.165 189.785 850.609 192.003C851.126 194.22 851.718 196.401 852.383 198.544C853.566 198.175 854.822 197.879 856.153 197.657C857.557 197.362 858.888 197.214 860.144 197.214C860.366 197.214 860.588 197.251 860.81 197.325C861.031 197.325 861.253 197.325 861.475 197.325C861.623 198.138 861.919 198.877 862.362 199.542C862.806 200.208 863.212 200.947 863.582 201.76C863.212 202.277 862.879 202.684 862.584 202.98C862.362 203.349 862.251 203.83 862.251 204.421C861.216 204.495 860.366 204.754 859.701 205.197C859.036 205.715 858.296 206.269 857.483 206.86H857.04C855.783 206.86 854.748 207.082 853.935 207.526C853.122 208.043 852.198 208.597 851.163 209.189C850.276 208.819 849.389 208.634 848.502 208.634C847.541 208.634 846.58 208.819 845.619 209.189C844.437 208.671 843.476 207.858 842.737 206.749C841.997 205.715 841.369 204.532 840.852 203.201C840.334 201.945 839.854 200.651 839.41 199.321C839.041 197.99 838.597 196.77 838.08 195.662V193.888C838.08 192.188 837.932 190.561 837.636 189.009C837.414 187.383 837.304 185.72 837.304 184.019C837.304 183.354 837.341 182.652 837.414 181.913C837.562 181.174 837.784 180.471 838.08 179.806C837.932 179.141 837.858 178.513 837.858 177.921V175.815C837.858 173.597 837.932 171.379 838.08 169.162C838.302 166.944 838.412 164.727 838.412 162.509C838.412 160.883 838.302 159.22 838.08 157.52C837.71 157.668 837.378 157.815 837.082 157.963C836.786 158.111 836.454 158.185 836.084 158.185C835.714 158.185 835.345 158.148 834.975 158.074C834.68 158 834.384 157.926 834.088 157.852C833.349 157.187 832.832 156.374 832.536 155.413C832.24 154.452 831.834 153.565 831.316 152.752C831.316 151.347 831.538 150.202 831.981 149.315C832.351 148.354 832.832 147.504 833.423 146.765C834.014 145.951 834.606 145.175 835.197 144.436C835.862 143.697 836.417 142.773 836.86 141.664H837.304C838.486 141.664 839.669 141.295 840.852 140.555C842.034 139.742 843.365 139.336 844.843 139.336C845.361 138.67 846.063 138.116 846.95 137.673C847.837 137.155 848.761 136.749 849.722 136.453C850.757 136.157 851.755 135.972 852.716 135.899C853.75 135.751 854.711 135.677 855.598 135.677C855.894 135.159 856.338 134.827 856.929 134.679C857.52 134.457 858.112 134.272 858.703 134.124C859.368 133.903 859.96 133.718 860.477 133.57C861.068 133.348 861.549 132.979 861.919 132.461C862.51 132.609 863.064 132.683 863.582 132.683C864.543 132.683 865.467 132.572 866.354 132.35C867.241 132.055 868.128 131.759 869.015 131.463C869.902 131.094 870.789 130.761 871.676 130.465C872.637 130.17 873.635 130.022 874.669 130.022C875.039 130.022 875.409 130.059 875.778 130.133C876.148 130.133 876.517 130.133 876.887 130.133C877.478 130.133 877.811 129.911 877.885 129.468C878.033 129.024 878.291 128.691 878.661 128.47C878.883 128.544 879.289 128.581 879.881 128.581C881.359 128.581 882.801 128.47 884.205 128.248C885.609 127.952 887.051 127.804 888.529 127.804C889.194 127.804 889.86 127.841 890.525 127.915C891.19 127.989 891.856 128.174 892.521 128.47C892.669 128.248 892.816 128.063 892.964 127.915C893.112 127.767 893.223 127.583 893.297 127.361C896.919 127.583 900.319 128.322 903.498 129.578C906.75 130.835 910.113 131.944 913.588 132.905C914.031 133.57 914.549 134.161 915.14 134.679L917.025 136.231C917.69 136.749 918.318 137.266 918.91 137.783C919.501 138.301 920.019 138.929 920.462 139.668V141.332ZM948.071 187.789C947.701 188.381 947.257 188.935 946.74 189.453C946.223 189.896 945.742 190.376 945.299 190.894C944.781 191.116 944.19 191.227 943.525 191.227C942.933 191.227 942.342 191.227 941.751 191.227C941.233 191.153 940.716 191.153 940.198 191.227C939.755 191.227 939.385 191.374 939.089 191.67C938.498 191.522 938.055 191.264 937.759 190.894C937.463 190.45 936.946 190.192 936.207 190.118C935.911 190.044 935.615 190.044 935.32 190.118C934.211 188.861 933.176 187.531 932.215 186.126C931.328 184.722 930.478 183.391 929.665 182.135C929.591 179.4 929.369 176.628 929 173.819C928.926 173.153 928.815 172.488 928.667 171.823C928.519 171.158 928.408 170.529 928.334 169.938C928.334 169.199 928.371 168.497 928.445 167.831C928.593 167.092 928.704 166.427 928.778 165.836C929.074 163.692 929.406 161.585 929.776 159.515C930.145 157.446 930.478 155.339 930.774 153.195C931.069 151.274 931.217 149.278 931.217 147.208C931.217 145.064 930.885 143.069 930.219 141.221L930.108 140.666C930.256 140.075 930.404 139.594 930.552 139.225C930.774 138.781 930.921 138.301 930.995 137.783C931.143 136.97 930.958 136.379 930.441 136.009C930.663 135.418 931.032 135.048 931.55 134.901C932.067 134.679 932.363 134.235 932.437 133.57C932.511 133.274 932.511 132.979 932.437 132.683C933.028 132.461 933.62 132.276 934.211 132.129C934.876 131.907 935.504 131.87 936.096 132.018C937.057 132.166 937.907 132.498 938.646 133.016C939.385 133.459 940.087 133.977 940.753 134.568C941.935 138.116 942.416 141.886 942.194 145.878C941.972 149.795 941.603 153.75 941.085 157.741C940.568 161.733 940.235 165.651 940.087 169.494C939.94 173.264 940.531 176.775 941.861 180.028L942.083 180.139C942.453 180.213 942.748 180.102 942.97 179.806C943.192 179.437 943.488 179.289 943.857 179.363C944.153 179.51 944.338 179.584 944.412 179.584C944.707 181.063 945.188 182.467 945.853 183.798C946.518 185.128 947.257 186.459 948.071 187.789ZM1065.27 189.009C1064.9 190.192 1064.79 191.374 1064.94 192.557C1064.71 192.853 1064.46 193.038 1064.16 193.111C1063.86 193.185 1063.57 193.296 1063.27 193.444C1062.98 193.518 1062.72 193.666 1062.5 193.888C1062.35 194.035 1062.35 194.368 1062.5 194.886C1060.06 195.033 1057.73 195.551 1055.51 196.438C1053.29 197.325 1051.11 198.286 1048.97 199.321C1047.86 198.951 1046.9 198.508 1046.09 197.99C1045.27 197.473 1044.24 197.14 1042.98 196.992C1041.73 194.479 1040.54 191.855 1039.43 189.12C1038.4 186.311 1037.88 183.502 1037.88 180.693C1037.88 178.623 1038.25 176.739 1038.99 175.038C1038.99 172.821 1039.18 170.64 1039.54 168.497C1039.91 166.353 1040.32 164.246 1040.76 162.177C1041.28 160.033 1041.73 157.889 1042.1 155.746C1042.46 153.602 1042.65 151.421 1042.65 149.204V146.765C1042.5 146.765 1042.32 146.949 1042.1 147.319C1041.87 147.615 1041.65 147.984 1041.43 148.428C1041.28 148.797 1041.13 149.167 1040.99 149.536C1040.84 149.906 1040.73 150.128 1040.65 150.202C1039.4 151.163 1038.4 152.382 1037.66 153.861C1036.99 155.265 1036.26 156.596 1035.44 157.852C1034.41 159.405 1033.3 160.92 1032.12 162.398C1031.01 163.877 1029.6 165.022 1027.9 165.836V166.057C1027.9 166.427 1027.79 166.686 1027.57 166.833C1027.35 166.981 1027.31 167.351 1027.46 167.942C1025.61 168.534 1023.87 169.384 1022.25 170.492C1020.7 171.601 1019.4 173.006 1018.37 174.706C1016.89 175.075 1015.48 175.593 1014.15 176.258C1012.9 176.849 1011.6 177.515 1010.27 178.254C1009.68 178.55 1009.05 178.919 1008.39 179.363C1007.72 179.806 1007.06 180.102 1006.39 180.25C1005.8 180.471 1004.99 180.619 1003.95 180.693C1002.99 180.767 1001.96 180.841 1000.85 180.915C999.814 180.989 998.779 181.026 997.744 181.026H995.305C994.935 181.026 994.455 180.841 993.863 180.471C993.272 180.102 992.607 179.695 991.867 179.252C991.202 178.808 990.5 178.402 989.761 178.032C989.022 177.589 988.319 177.293 987.654 177.145C987.063 175.223 986.213 173.523 985.104 172.045C984.069 170.492 982.96 168.94 981.777 167.388C981.408 165.614 980.89 163.766 980.225 161.844C979.634 159.922 978.562 158.333 977.01 157.076C977.379 156.559 977.564 155.967 977.564 155.302C977.564 154.489 977.379 153.713 977.01 152.974C976.64 152.235 976.455 151.421 976.455 150.534C976.455 149.943 976.492 149.5 976.566 149.204C975.753 150.091 975.162 151.237 974.792 152.641C974.497 153.972 974.349 155.191 974.349 156.3C974.349 157.187 974.46 158 974.681 158.739C973.942 159.774 973.462 161.068 973.24 162.62C973.092 164.172 973.018 165.54 973.018 166.723C973.018 168.201 973.129 169.642 973.351 171.047C972.168 172.229 971.577 173.671 971.577 175.371C971.577 176.332 971.798 177.182 972.242 177.921C972.242 178.217 972.168 178.439 972.02 178.586C971.872 178.734 971.688 178.845 971.466 178.919C971.318 178.993 971.133 179.104 970.911 179.252C970.764 179.326 970.69 179.51 970.69 179.806C970.69 180.176 970.69 180.582 970.69 181.026C970.764 181.469 970.801 181.913 970.801 182.356C970.801 183.391 970.764 184.463 970.69 185.572C970.616 186.681 970.579 187.752 970.579 188.787C970.579 190.931 970.764 192.483 971.133 193.444C971.577 194.331 972.094 194.996 972.685 195.44C973.351 195.883 974.053 196.327 974.792 196.77C975.531 197.214 976.271 198.064 977.01 199.321C976.788 199.986 976.381 200.54 975.79 200.984C975.273 201.353 974.755 201.76 974.238 202.203C973.794 202.573 973.388 203.017 973.018 203.534C972.649 204.051 972.501 204.791 972.575 205.752H972.02C971.059 205.752 970.135 205.899 969.248 206.195C968.361 206.491 967.437 206.639 966.476 206.639C966.255 206.639 966.033 206.602 965.811 206.528C965.589 206.528 965.368 206.528 965.146 206.528L964.037 205.862C963.667 205.641 963.298 205.53 962.928 205.53C962.559 205.53 962.078 205.604 961.487 205.752C960.452 202.425 959.639 198.988 959.048 195.44C958.53 191.892 958.271 188.418 958.271 185.017C958.271 184.648 958.345 184.278 958.493 183.909C958.715 183.465 959.011 183.317 959.38 183.465V181.358C959.38 179.067 959.565 176.849 959.935 174.706C960.378 172.488 960.6 170.197 960.6 167.831C960.6 167.166 960.563 166.501 960.489 165.836C960.489 165.17 960.452 164.542 960.378 163.951C960.748 162.694 961.117 161.437 961.487 160.181C961.93 158.85 962.152 157.483 962.152 156.078C962.152 155.487 962.041 154.785 961.819 153.972C962.411 153.528 962.854 152.974 963.15 152.308C963.446 151.569 963.667 150.793 963.815 149.98C963.963 149.093 964.074 148.243 964.148 147.43C964.222 146.617 964.296 145.878 964.37 145.212C965.109 143.734 965.515 142.145 965.589 140.444C965.663 138.744 966.033 137.155 966.698 135.677C966.624 135.381 966.587 134.864 966.587 134.124C966.587 132.646 966.809 131.168 967.252 129.689C967.77 128.137 968.768 126.954 970.246 126.141C971.577 126.659 973.129 126.917 974.903 126.917C976.603 126.917 978.229 126.659 979.782 126.141C980.225 126.289 980.632 126.474 981.001 126.696C981.371 126.843 981.741 127.028 982.11 127.25C982.554 127.398 982.997 127.546 983.441 127.694C983.884 127.767 984.402 127.767 984.993 127.694C985.732 129.837 986.36 132.018 986.878 134.235C987.469 136.453 987.913 138.707 988.208 140.999C988.356 141.96 988.393 142.995 988.319 144.103C988.319 145.212 988.393 146.247 988.541 147.208C988.615 147.799 988.8 148.354 989.095 148.871C989.391 149.315 989.687 149.832 989.982 150.424C990.278 151.015 990.5 151.68 990.648 152.419C990.869 153.158 990.943 154.082 990.869 155.191C991.683 157.113 992.57 158.961 993.531 160.735C994.565 162.435 995.674 164.135 996.857 165.836C997.522 166.057 998.113 166.353 998.631 166.723C999.148 167.018 999.481 167.536 999.629 168.275C1000.29 168.275 1000.89 168.386 1001.4 168.607L1003.29 169.162C1006.1 168.275 1008.68 167.092 1011.05 165.614C1013.49 164.135 1016.04 162.879 1018.7 161.844C1021.95 158.665 1024.76 155.154 1027.13 151.311C1029.49 147.393 1031.86 143.512 1034.22 139.668V137.229C1034.67 137.007 1035.04 136.749 1035.33 136.453C1035.7 136.083 1036.14 135.825 1036.66 135.677C1036.74 134.79 1036.92 133.94 1037.22 133.127C1037.59 132.24 1037.96 131.426 1038.33 130.687C1038.77 129.874 1039.14 129.098 1039.43 128.359C1039.73 127.546 1039.88 126.696 1039.88 125.809C1039.88 125.291 1039.84 124.848 1039.77 124.478C1040.88 123.369 1042.21 122.815 1043.76 122.815C1045.24 122.815 1046.71 123.185 1048.19 123.924C1049.75 124.589 1051.19 125.217 1052.52 125.809C1053.33 127.583 1053.92 129.468 1054.29 131.463C1054.74 133.385 1055.03 135.381 1055.18 137.451C1055.33 139.521 1055.4 141.59 1055.4 143.66V151.532C1055.33 152.124 1055.1 152.567 1054.74 152.863C1054.44 153.085 1054.22 153.454 1054.07 153.972V155.08C1054.07 155.45 1054.03 155.82 1053.96 156.189C1053.96 157.741 1053.77 159.368 1053.4 161.068C1053.03 163.211 1052.55 165.392 1051.96 167.61C1051.45 169.753 1051.19 171.934 1051.19 174.151C1051.19 174.964 1051.22 175.778 1051.3 176.591C1051.37 177.404 1051.52 178.217 1051.74 179.03C1051.37 179.695 1051.19 180.545 1051.19 181.58C1051.19 182.763 1051.37 183.872 1051.74 184.907C1052.18 185.867 1052.7 186.828 1053.29 187.789C1054.33 187.789 1055.36 187.752 1056.4 187.678C1057.43 187.605 1058.5 187.568 1059.61 187.568C1060.65 187.568 1061.61 187.678 1062.5 187.9C1063.38 188.048 1064.31 188.418 1065.27 189.009ZM1127.58 126.696C1127.58 127.361 1127.29 127.915 1126.69 128.359C1126.18 128.802 1125.92 129.135 1125.92 129.357C1125.92 129.8 1125.99 130.133 1126.14 130.355C1126.29 130.502 1126.36 130.687 1126.36 130.909V131.463C1125.62 132.203 1125.07 133.016 1124.7 133.903C1124.33 134.716 1124.03 135.603 1123.81 136.564C1123.59 137.451 1123.37 138.375 1123.15 139.336C1123 140.297 1122.78 141.221 1122.48 142.108C1122.11 142.995 1121.63 143.771 1121.04 144.436C1120.45 145.027 1119.97 145.73 1119.6 146.543C1119.01 147.873 1118.56 149.241 1118.27 150.645C1117.97 152.05 1117.34 153.343 1116.38 154.526V155.08C1116.31 155.598 1116.46 156.041 1116.83 156.411C1115.42 158.259 1114.31 160.476 1113.5 163.064C1112.69 165.577 1112.02 168.238 1111.5 171.047C1110.99 173.782 1110.54 176.554 1110.17 179.363C1109.8 182.098 1109.36 184.574 1108.84 186.791C1109.21 188.418 1109.77 189.97 1110.51 191.448C1111.32 192.853 1112.1 194.331 1112.84 195.883C1114.31 196.253 1115.72 196.77 1117.05 197.436C1118.45 198.101 1119.45 199.173 1120.04 200.651C1119.89 202.13 1119.41 203.275 1118.6 204.088C1117.79 204.901 1116.79 205.752 1115.61 206.639C1114.79 206.343 1114.13 206.084 1113.61 205.862C1113.09 205.715 1112.32 205.715 1111.28 205.862C1109.88 204.754 1108.55 203.867 1107.29 203.201C1106.11 202.536 1105.04 201.39 1104.08 199.764C1103.93 199.542 1103.71 199.432 1103.41 199.432H1102.41C1102.04 198.544 1101.6 197.621 1101.08 196.66C1100.56 195.625 1100.05 194.59 1099.53 193.555C1099.01 192.446 1098.57 191.374 1098.2 190.34C1097.83 189.231 1097.64 188.233 1097.64 187.346C1097.64 183.576 1097.98 179.843 1098.64 176.147C1099.38 172.377 1099.75 168.571 1099.75 164.727V163.618C1098.27 163.988 1096.79 164.505 1095.32 165.17C1093.91 165.836 1092.47 166.353 1090.99 166.723C1090.47 166.87 1090.18 167.129 1090.11 167.499C1090.03 167.868 1089.81 168.164 1089.44 168.386C1088.7 168.46 1088 168.534 1087.33 168.607C1086.67 168.607 1086.04 168.607 1085.45 168.607C1084.19 168.607 1082.86 168.571 1081.46 168.497C1080.13 168.349 1078.8 168.09 1077.47 167.72C1076.13 167.351 1074.88 166.833 1073.7 166.168C1072.59 165.503 1071.59 164.653 1070.7 163.618C1070.55 163.692 1070.37 163.766 1070.15 163.84C1069.93 163.914 1069.7 163.951 1069.48 163.951C1069.26 163.951 1069.04 163.914 1068.82 163.84C1068.59 163.766 1068.41 163.692 1068.26 163.618C1067.67 162.805 1067.19 161.918 1066.82 160.957L1065.71 158.074C1065.34 157.113 1064.94 156.189 1064.49 155.302C1064.05 154.415 1063.46 153.602 1062.72 152.863C1062.5 151.532 1062.39 150.239 1062.39 148.982C1062.39 147.652 1062.5 146.358 1062.72 145.101C1062.87 143.845 1063.12 142.588 1063.49 141.332C1063.2 140.444 1063.01 139.521 1062.94 138.56C1062.79 137.599 1062.72 136.638 1062.72 135.677C1062.72 134.568 1062.83 133.422 1063.05 132.24C1063.27 131.057 1063.64 129.985 1064.16 129.024C1064.68 127.989 1065.42 127.139 1066.38 126.474C1067.26 125.809 1068.37 125.476 1069.7 125.476C1071.18 125.476 1072.55 125.883 1073.81 126.696C1075.06 127.435 1076.28 128.211 1077.47 129.024C1077.61 129.911 1077.72 130.798 1077.8 131.685C1077.87 132.498 1077.91 133.385 1077.91 134.346C1077.91 136.12 1077.8 137.931 1077.58 139.779C1077.43 141.553 1077.35 143.364 1077.35 145.212C1077.35 147.134 1077.58 148.945 1078.02 150.645C1078.54 152.271 1079.42 153.824 1080.68 155.302H1081.12C1081.72 155.228 1082.23 155.339 1082.68 155.635C1083.12 155.93 1083.64 156.078 1084.23 156.078C1084.75 156.078 1085.15 155.893 1085.45 155.524C1085.74 155.08 1086.11 154.859 1086.56 154.859C1087 154.859 1087.33 154.933 1087.55 155.08C1087.78 155.228 1087.96 155.302 1088.11 155.302C1088.92 155.302 1089.85 155.006 1090.88 154.415C1091.92 153.824 1092.58 153.158 1092.88 152.419C1093.17 152.641 1093.54 152.752 1093.99 152.752C1094.58 152.752 1095.13 152.567 1095.65 152.198C1096.17 151.828 1096.83 151.643 1097.64 151.643C1098.09 151.643 1098.24 151.384 1098.09 150.867C1098.01 150.276 1098.16 149.906 1098.53 149.758C1099.42 149.389 1100.38 148.871 1101.41 148.206C1102.52 147.467 1103.41 147.023 1104.08 146.875C1104.45 145.914 1104.89 145.027 1105.41 144.214C1106 143.327 1106.59 142.514 1107.18 141.775C1107.4 140.075 1107.85 138.449 1108.51 136.896C1109.18 135.344 1109.88 133.792 1110.62 132.24C1111.36 130.687 1112.06 129.135 1112.72 127.583C1113.39 126.03 1113.83 124.404 1114.05 122.704C1114.87 121.891 1115.5 121.004 1115.94 120.043C1116.46 119.082 1116.9 118.121 1117.27 117.16C1118.01 116.938 1118.93 116.828 1120.04 116.828C1121.15 116.754 1122.11 116.717 1122.93 116.717H1124.81C1125.03 117.16 1125.33 117.567 1125.7 117.936L1126.81 119.045C1126.14 120.08 1125.81 121.115 1125.81 122.15C1125.81 122.963 1125.99 123.776 1126.36 124.589C1126.73 125.328 1127.14 126.03 1127.58 126.696ZM1234.8 189.009C1234.8 190.266 1234.47 191.374 1233.8 192.335C1233.21 193.222 1232.99 194.331 1233.14 195.662C1232.1 196.253 1231.25 197.029 1230.59 197.99C1229.92 198.951 1229.29 199.949 1228.7 200.984C1223.82 204.162 1218.58 206.713 1212.96 208.634C1207.41 210.63 1201.69 211.628 1195.77 211.628C1195.4 211.628 1195.07 211.443 1194.77 211.074C1194.48 210.778 1194.18 210.445 1193.89 210.076C1193.59 209.706 1193.26 209.337 1192.89 208.967C1192.59 208.671 1192.22 208.524 1191.78 208.524C1191.26 208.524 1190.86 208.634 1190.56 208.856C1190.56 208.708 1190.56 208.56 1190.56 208.413C1190.63 208.339 1190.67 208.228 1190.67 208.08C1190.67 207.193 1190.56 206.269 1190.34 205.308C1190.12 204.421 1190.01 203.534 1190.01 202.647C1190.01 201.612 1190.19 200.762 1190.56 200.097H1191.89C1192.63 200.097 1193.33 200.06 1194 199.986C1194.74 199.838 1195.51 199.764 1196.33 199.764C1197.14 199.764 1197.88 199.986 1198.54 200.429C1202.61 200.282 1206.45 199.542 1210.07 198.212C1213.77 196.807 1217.5 195.44 1221.27 194.109C1221.87 193.296 1222.2 192.409 1222.27 191.448C1222.42 190.413 1222.72 189.453 1223.16 188.565C1221.24 186.939 1219.28 185.683 1217.28 184.796C1215.36 183.835 1213.11 183.502 1210.52 183.798C1208.97 182.837 1207.3 182.282 1205.53 182.135C1203.83 181.987 1202.09 181.765 1200.32 181.469C1199.87 181.395 1199.39 181.321 1198.88 181.248C1198.43 181.1 1197.95 181.026 1197.43 181.026C1197.07 181.026 1196.7 181.137 1196.33 181.358C1196.03 181.506 1195.96 181.765 1196.1 182.135C1195.73 181.543 1195.22 181.211 1194.55 181.137C1193.96 180.989 1193.44 180.693 1193 180.25C1190.63 180.102 1188.56 179.695 1186.79 179.03C1185.02 178.291 1183.06 177.478 1180.91 176.591C1180.32 176.369 1179.73 176.221 1179.14 176.147C1178.62 175.999 1178.11 175.778 1177.59 175.482C1176.26 174.817 1175.19 173.93 1174.37 172.821C1173.56 171.712 1172.93 170.492 1172.49 169.162C1171.97 167.757 1171.6 166.316 1171.38 164.838C1171.16 163.359 1170.94 161.992 1170.71 160.735C1171.38 159.552 1172.01 158.333 1172.6 157.076C1173.12 155.82 1173.56 154.489 1173.93 153.085C1174.37 152.863 1174.82 152.678 1175.26 152.53C1175.7 152.382 1176.18 152.198 1176.7 151.976C1176.63 151.828 1176.59 151.643 1176.59 151.421C1176.59 151.052 1176.7 150.682 1176.92 150.313C1177.22 149.943 1177.29 149.573 1177.14 149.204C1178.77 147.725 1180.32 146.21 1181.8 144.658C1183.35 143.032 1184.68 141.258 1185.79 139.336C1186.9 138.966 1187.79 138.412 1188.45 137.673C1189.12 136.933 1189.78 136.194 1190.45 135.455C1191.11 134.642 1191.85 133.94 1192.67 133.348C1193.48 132.683 1194.52 132.276 1195.77 132.129C1196.07 131.611 1196.47 131.205 1196.99 130.909C1197.51 130.539 1198.03 130.207 1198.54 129.911C1199.06 129.615 1199.54 129.283 1199.99 128.913C1200.43 128.544 1200.76 128.026 1200.98 127.361C1202.17 127.361 1203.24 127.139 1204.2 126.696C1205.23 126.252 1206.23 125.772 1207.19 125.254C1208.15 124.737 1209.11 124.256 1210.07 123.813C1211.11 123.369 1212.22 123.148 1213.4 123.148C1213.7 123.148 1213.99 123.185 1214.29 123.258C1214.58 123.258 1214.92 123.295 1215.29 123.369C1215.8 123.887 1216.14 124.515 1216.28 125.254C1216.51 125.919 1216.65 126.659 1216.73 127.472C1216.8 128.285 1216.84 129.098 1216.84 129.911C1216.91 130.724 1217.06 131.463 1217.28 132.129C1216.62 133.385 1215.88 134.642 1215.06 135.899C1214.33 137.155 1213.33 138.116 1212.07 138.781H1211.85C1211.33 138.855 1210.85 138.744 1210.41 138.449C1209.96 138.153 1209.45 138.005 1208.86 138.005C1208.49 138.005 1208.19 138.116 1207.97 138.338L1207.41 138.892C1207.27 139.04 1207.04 139.188 1206.75 139.336C1206.53 139.484 1206.19 139.484 1205.75 139.336C1204.72 139.705 1204.31 140.334 1204.53 141.221C1203.13 141.368 1201.94 141.812 1200.98 142.551C1200.02 143.216 1199.14 143.993 1198.32 144.88C1197.51 145.693 1196.7 146.469 1195.88 147.208C1195.07 147.873 1194.11 148.243 1193 148.317C1191.74 150.534 1190.19 152.493 1188.34 154.193C1186.57 155.893 1185.09 157.815 1183.91 159.959C1184.13 160.55 1184.28 161.179 1184.35 161.844C1184.43 162.509 1184.54 163.211 1184.68 163.951C1185.35 164.838 1186.13 165.614 1187.01 166.279C1187.97 166.944 1188.9 167.61 1189.78 168.275H1190.12C1191.6 168.275 1192.96 168.571 1194.22 169.162C1195.48 169.679 1196.81 169.938 1198.21 169.938C1198.95 169.938 1199.58 169.79 1200.1 169.494C1202.02 169.938 1203.9 170.308 1205.75 170.603C1207.67 170.899 1209.59 171.121 1211.52 171.269C1212.48 171.416 1213.44 171.49 1214.4 171.49C1215.43 171.49 1216.4 171.601 1217.28 171.823C1218.1 172.045 1218.91 172.34 1219.72 172.71C1220.53 173.006 1221.35 173.338 1222.16 173.708C1223.86 174.447 1225.45 175.26 1226.93 176.147C1228.48 177.034 1229.85 178.106 1231.03 179.363C1232.21 180.545 1233.14 181.95 1233.8 183.576C1234.47 185.128 1234.8 186.939 1234.8 189.009ZM1265.29 187.789C1264.92 188.381 1264.48 188.935 1263.96 189.453C1263.44 189.896 1262.96 190.376 1262.52 190.894C1262 191.116 1261.41 191.227 1260.75 191.227C1260.15 191.227 1259.56 191.227 1258.97 191.227C1258.45 191.153 1257.94 191.153 1257.42 191.227C1256.98 191.227 1256.61 191.374 1256.31 191.67C1255.72 191.522 1255.28 191.264 1254.98 190.894C1254.68 190.45 1254.17 190.192 1253.43 190.118C1253.13 190.044 1252.84 190.044 1252.54 190.118C1251.43 188.861 1250.4 187.531 1249.44 186.126C1248.55 184.722 1247.7 183.391 1246.89 182.135C1246.81 179.4 1246.59 176.628 1246.22 173.819C1246.15 173.153 1246.04 172.488 1245.89 171.823C1245.74 171.158 1245.63 170.529 1245.56 169.938C1245.56 169.199 1245.59 168.497 1245.67 167.831C1245.81 167.092 1245.93 166.427 1246 165.836C1246.3 163.692 1246.63 161.585 1247 159.515C1247.37 157.446 1247.7 155.339 1248 153.195C1248.29 151.274 1248.44 149.278 1248.44 147.208C1248.44 145.064 1248.11 143.069 1247.44 141.221L1247.33 140.666C1247.48 140.075 1247.63 139.594 1247.77 139.225C1248 138.781 1248.14 138.301 1248.22 137.783C1248.36 136.97 1248.18 136.379 1247.66 136.009C1247.88 135.418 1248.25 135.048 1248.77 134.901C1249.29 134.679 1249.58 134.235 1249.66 133.57C1249.73 133.274 1249.73 132.979 1249.66 132.683C1250.25 132.461 1250.84 132.276 1251.43 132.129C1252.1 131.907 1252.73 131.87 1253.32 132.018C1254.28 132.166 1255.13 132.498 1255.87 133.016C1256.61 133.459 1257.31 133.977 1257.97 134.568C1259.16 138.116 1259.64 141.886 1259.42 145.878C1259.19 149.795 1258.82 153.75 1258.31 157.741C1257.79 161.733 1257.46 165.651 1257.31 169.494C1257.16 173.264 1257.75 176.775 1259.08 180.028L1259.3 180.139C1259.67 180.213 1259.97 180.102 1260.19 179.806C1260.41 179.437 1260.71 179.289 1261.08 179.363C1261.37 179.51 1261.56 179.584 1261.63 179.584C1261.93 181.063 1262.41 182.467 1263.07 183.798C1263.74 185.128 1264.48 186.459 1265.29 187.789ZM1318.55 216.15C1318.55 219.556 1320.25 221.259 1323.66 221.259C1324.95 221.259 1326.01 221.146 1326.84 220.919C1327.75 220.767 1328.5 220.654 1329.11 220.578V226.936C1328.05 227.239 1326.99 227.466 1325.93 227.618C1324.87 227.845 1323.58 227.958 1322.07 227.958C1318.06 227.958 1315.11 227.012 1313.21 225.12C1311.32 223.227 1310.38 220.616 1310.38 217.286C1310.38 214.712 1311.13 212.214 1312.65 209.792C1314.24 207.445 1315.98 205.402 1317.87 203.661C1315.52 203.964 1312.87 204.115 1309.92 204.115C1304.17 204.115 1299.06 202.942 1294.59 200.595C1290.2 198.249 1286.76 194.767 1284.26 190.15C1281.84 185.457 1280.63 179.742 1280.63 173.005C1280.63 166.344 1281.73 160.63 1283.92 155.861C1286.19 151.092 1289.33 147.421 1293.35 144.848C1297.43 142.274 1302.16 140.987 1307.54 140.987C1312.76 140.987 1317.23 142.123 1320.94 144.394C1324.72 146.664 1327.6 149.881 1329.56 154.044C1331.61 158.132 1332.63 162.938 1332.63 168.464V174.481H1290.96C1291.11 181.369 1292.85 186.63 1296.18 190.263C1299.59 193.821 1304.32 195.6 1310.38 195.6C1314.24 195.6 1317.64 195.259 1320.59 194.578C1323.62 193.821 1326.73 192.761 1329.9 191.399V200.141C1326.88 202.563 1324.53 204.683 1322.87 206.499C1321.2 208.316 1320.06 209.981 1319.46 211.495C1318.85 213.009 1318.55 214.561 1318.55 216.15ZM1307.42 149.162C1302.66 149.162 1298.87 150.714 1296.07 153.817C1293.35 156.845 1291.72 161.084 1291.19 166.534H1322.18C1322.11 161.387 1320.9 157.223 1318.55 154.044C1316.2 150.79 1312.5 149.162 1307.42 149.162Z" fill="black"/>
<rect x="3.5" y="3.5" width="379" height="324" fill="#C4C4C4" stroke="black" stroke-width="7"/>
<path d="M85.9079 148C78.6049 156.5 48.2025 157 44.397 164.5C35.0177 160.585 9.81991 190.567 12.3236 204.348C18.9821 241 25.4623 237.072 48.6328 235C101.157 223 92.9679 201.26 85.9079 194M34.2379 7C28.5958 38.0784 32.2384 27.8312 42.7554 51.5457C53.6462 76.103 101.455 34.2992 137.198 62.0515C183.576 89.2748 173.667 94.4077 187.784 111.113C195.453 120.187 195.937 141.155 193.362 153.587C203.231 182.443 203.664 228.582 203.664 251C209.17 273.5 205.358 275.828 187.784 324M118.958 164.5C113.48 155.426 102.397 238.534 122.975 275.828L115.306 324M118.958 164.5C119.955 153.728 124.808 155.027 126.995 151L105.816 120L118.958 164.5ZM8 126.134C38.8906 129.5 34.2379 106.687 46.6172 104.5C48.9299 98.4504 67.2129 83.7009 81.8015 91C82.3232 92.3333 84.8068 94.6 90.5675 93M110.121 321.41L115.306 268.059L118.958 284.634L110.121 321.41Z" stroke="black" stroke-width="7"/>
<path d="M152 211L252.03 97.499L269.053 105.7L293.163 66.1691L281.867 20.6956L359.249 109.876L315.796 101.89L289.319 120.696L290.284 149.054L152 211Z" fill="#C00000" stroke="black" stroke-width="9"/>
</svg>
