<svg width="468" height="60" viewBox="0 0 468 60" fill="none" xmlns="http://www.w3.org/2000/svg">
<rect width="468" height="60" fill="white"/>
<path d="M165.484 41.8438C165.484 42.0521 165.474 42.2083 165.453 42.3125C165.349 42.3542 165.266 42.4167 165.203 42.5C165.141 42.5625 165.036 42.5833 164.891 42.5625C164.849 42.875 164.745 43.1354 164.578 43.3438C164.411 43.5521 164.234 43.7396 164.047 43.9062C163.88 44.0938 163.714 44.2812 163.547 44.4688C163.38 44.6771 163.276 44.9375 163.234 45.25C162.922 45.4167 162.609 45.6354 162.297 45.9062C162.005 46.1979 161.745 46.3958 161.516 46.5C161.349 46.5833 161.172 46.6458 160.984 46.6875C160.797 46.75 160.609 46.8229 160.422 46.9062C159.818 47.1771 159.193 47.4583 158.547 47.75C157.922 48.0417 157.266 48.1875 156.578 48.1875H156.359C156.276 48.2708 156.172 48.3229 156.047 48.3438C155.922 48.3854 155.797 48.4167 155.672 48.4375C155.547 48.4583 155.422 48.4896 155.297 48.5312C155.172 48.5729 155.078 48.6354 155.016 48.7188C154.786 48.6354 154.536 48.5938 154.266 48.5938H154.047C153.693 48.6771 153.359 48.7396 153.047 48.7812C152.734 48.8229 152.401 48.8438 152.047 48.8438C151.422 48.8438 150.797 48.8021 150.172 48.7188C149.547 48.6354 148.922 48.5625 148.297 48.5C147.901 48.1875 147.578 47.7917 147.328 47.3125C147.078 46.8542 146.953 46.3646 146.953 45.8438C146.953 45.4479 147.036 45.0729 147.203 44.7188C147.37 44.3854 147.589 44.0833 147.859 43.8125H147.953C148.141 43.8125 148.328 43.7708 148.516 43.6875C148.724 43.6042 148.922 43.5625 149.109 43.5625C149.318 43.5625 149.484 43.6458 149.609 43.8125C149.755 43.9792 149.859 44.1771 149.922 44.4062C150.005 44.6354 150.057 44.8646 150.078 45.0938C150.099 45.3438 150.109 45.5417 150.109 45.6875C150.339 45.7917 150.578 45.8542 150.828 45.875C151.099 45.8958 151.37 45.9062 151.641 45.9062C151.911 45.9062 152.214 45.8854 152.547 45.8438C152.88 45.8229 153.214 45.7708 153.547 45.6875C153.901 45.625 154.234 45.5417 154.547 45.4375C154.88 45.3333 155.161 45.1979 155.391 45.0312C156.536 44.9271 157.547 44.6667 158.422 44.25C159.297 43.8333 160.224 43.3438 161.203 42.7812C161.245 42.5521 161.328 42.375 161.453 42.25C161.599 42.1042 161.672 41.8958 161.672 41.625C161.672 41.5833 161.661 41.5417 161.641 41.5C161.641 41.4375 161.641 41.3854 161.641 41.3438C161.224 40.8229 160.786 40.3646 160.328 39.9688C159.891 39.5729 159.318 39.3125 158.609 39.1875C158.526 39 158.391 38.8646 158.203 38.7812C158.016 38.6771 157.818 38.5833 157.609 38.5C157.401 38.4167 157.203 38.3333 157.016 38.25C156.828 38.1458 156.693 37.9792 156.609 37.75C156.047 37.6458 155.464 37.5208 154.859 37.375C154.276 37.2083 153.776 36.9167 153.359 36.5C153.026 36.4792 152.703 36.4167 152.391 36.3125C152.099 36.1875 151.807 36.0729 151.516 35.9688C151.224 35.8438 150.922 35.7396 150.609 35.6562C150.297 35.5521 149.974 35.5 149.641 35.5C149.557 35.3542 149.443 35.2396 149.297 35.1562C149.151 35.0729 148.984 35 148.797 34.9375C148.63 34.875 148.464 34.8125 148.297 34.75C148.151 34.6667 148.036 34.5521 147.953 34.4062C147.87 34.4271 147.807 34.4688 147.766 34.5312C147.724 34.5938 147.651 34.625 147.547 34.625H147.422C147.38 34.5 147.297 34.4167 147.172 34.375C147.047 34.3125 146.974 34.1979 146.953 34.0312C146.578 34.0104 146.234 33.9375 145.922 33.8125C145.63 33.6875 145.349 33.5521 145.078 33.4062C144.828 33.2396 144.568 33.0833 144.297 32.9375C144.026 32.7917 143.724 32.6771 143.391 32.5938C143.182 32.4271 142.984 32.25 142.797 32.0625C142.63 31.8542 142.411 31.75 142.141 31.75C142.078 31.75 141.964 31.7708 141.797 31.8125C141.755 31.4375 141.599 31.1771 141.328 31.0312C141.057 30.8646 140.766 30.7188 140.453 30.5938C140.245 30.0521 139.964 29.5729 139.609 29.1562C139.255 28.7396 138.87 28.3542 138.453 28C138.495 27.875 138.516 27.7812 138.516 27.7188C138.516 27.5104 138.464 27.3333 138.359 27.1875C138.255 27.0208 138.141 26.8854 138.016 26.7812C137.724 25.8438 137.578 24.9271 137.578 24.0312C137.578 22.7812 137.859 21.625 138.422 20.5625C138.964 19.4792 139.828 18.6667 141.016 18.125C141.036 17.9583 141.089 17.8125 141.172 17.6875C141.276 17.5625 141.339 17.4167 141.359 17.25C141.547 17.25 141.693 17.2083 141.797 17.125C141.901 17.0417 141.995 16.9583 142.078 16.875C142.182 16.7708 142.286 16.6771 142.391 16.5938C142.495 16.5104 142.63 16.4583 142.797 16.4375C143.589 15.75 144.432 15.1979 145.328 14.7812C146.224 14.3438 147.141 13.8958 148.078 13.4375C148.266 13.3542 148.422 13.1979 148.547 12.9688H148.734C148.943 12.9688 149.099 12.9271 149.203 12.8438C149.328 12.7396 149.505 12.7083 149.734 12.75C149.818 12.625 149.922 12.5417 150.047 12.5C150.193 12.4583 150.328 12.4271 150.453 12.4062C150.599 12.3646 150.734 12.3125 150.859 12.25C150.984 12.1875 151.068 12.0938 151.109 11.9688H151.328C151.682 11.9688 152.026 11.9167 152.359 11.8125C152.693 11.6875 153.026 11.5521 153.359 11.4062H153.578C153.995 11.4062 154.38 11.3333 154.734 11.1875C155.109 11.0208 155.505 10.9062 155.922 10.8438C156.089 10.8021 156.255 10.7917 156.422 10.8125C156.589 10.8333 156.755 10.8438 156.922 10.8438C157.026 10.8438 157.151 10.8333 157.297 10.8125C157.443 10.7917 157.547 10.7292 157.609 10.625H157.672C157.797 10.625 157.87 10.6667 157.891 10.75C157.911 10.8333 157.974 10.875 158.078 10.875C158.224 10.875 158.37 10.8542 158.516 10.8125C158.661 10.7708 158.807 10.75 158.953 10.75C159.578 10.75 160.193 10.8125 160.797 10.9375C161.422 11.0625 162.036 11.1771 162.641 11.2812C162.682 11.5312 162.786 11.7083 162.953 11.8125C163.141 11.9167 163.339 12.0104 163.547 12.0938V12.2188C163.547 12.3854 163.589 12.5208 163.672 12.625C163.589 12.9167 163.443 13.1354 163.234 13.2812C163.026 13.4271 162.797 13.5521 162.547 13.6562C162.651 13.7396 162.714 13.8542 162.734 14C162.755 14.1458 162.766 14.2812 162.766 14.4062V14.7812L162.609 14.75C162.276 14.75 162.109 14.9062 162.109 15.2188C161.839 15.0521 161.536 14.9479 161.203 14.9062C160.891 14.8646 160.578 14.8438 160.266 14.8438C159.849 14.8438 159.411 14.8646 158.953 14.9062C158.495 14.9271 158.047 14.9167 157.609 14.875C157.443 15.0833 157.234 15.2396 156.984 15.3438C156.734 15.4271 156.484 15.4688 156.234 15.4688C155.964 15.4688 155.703 15.4167 155.453 15.3125C155.203 15.1875 155.026 15.0104 154.922 14.7812C154.818 14.7396 154.724 14.7188 154.641 14.7188H154.359C154.026 14.7188 153.693 14.7604 153.359 14.8438C153.047 14.9062 152.724 14.9896 152.391 15.0938C152.057 15.1771 151.724 15.2708 151.391 15.375C151.078 15.4583 150.755 15.5104 150.422 15.5312C150.297 15.6979 150.13 15.8125 149.922 15.875C149.714 15.9375 149.547 16.0521 149.422 16.2188C148.984 16.3021 148.589 16.4479 148.234 16.6562C147.88 16.8438 147.536 17.0521 147.203 17.2812L146.234 17.9375C145.922 18.1458 145.568 18.3229 145.172 18.4688C144.88 18.7812 144.609 19.0312 144.359 19.2188C144.109 19.4062 143.786 19.5729 143.391 19.7188C143.141 19.8021 142.995 19.9271 142.953 20.0938C142.932 20.2604 142.849 20.4271 142.703 20.5938C142.578 20.7396 142.422 20.8542 142.234 20.9375C142.068 21 141.922 21.1146 141.797 21.2812C141.693 21.4271 141.609 21.6042 141.547 21.8125C141.505 22 141.453 22.1875 141.391 22.375C141.328 22.5625 141.255 22.75 141.172 22.9375C141.089 23.1042 140.964 23.25 140.797 23.375C140.797 23.4583 140.786 23.5417 140.766 23.625C140.766 23.7083 140.766 23.7812 140.766 23.8438C140.766 24.1354 140.797 24.4375 140.859 24.75C140.943 25.0417 140.995 25.3333 141.016 25.625C141.432 26.3542 141.922 27.0208 142.484 27.625C143.047 28.2083 143.651 28.75 144.297 29.25C144.943 29.75 145.609 30.2188 146.297 30.6562C147.005 31.0938 147.703 31.5208 148.391 31.9375C148.641 31.9167 148.87 31.9479 149.078 32.0312C149.286 32.0938 149.505 32.1354 149.734 32.1562C149.984 32.3438 150.276 32.4896 150.609 32.5938L151.609 32.9062C151.943 33.0104 152.266 33.1354 152.578 33.2812C152.891 33.4062 153.151 33.5833 153.359 33.8125C153.464 33.8333 153.557 33.8646 153.641 33.9062C153.724 33.9271 153.818 33.9375 153.922 33.9375C154.047 33.9375 154.12 33.8958 154.141 33.8125C155.078 34.1667 155.995 34.5625 156.891 35C157.786 35.4167 158.734 35.7396 159.734 35.9688C160.13 36.3021 160.568 36.5938 161.047 36.8438C161.526 37.0938 162.005 37.3542 162.484 37.625C162.964 37.875 163.422 38.1562 163.859 38.4688C164.297 38.7604 164.682 39.1146 165.016 39.5312C165.057 39.9271 165.141 40.3125 165.266 40.6875C165.411 41.0417 165.484 41.4271 165.484 41.8438ZM202.797 35.2188C202.714 35.5729 202.547 35.8542 202.297 36.0625C202.068 36.25 201.797 36.3958 201.484 36.5C201.172 36.6042 200.839 36.6771 200.484 36.7188C200.151 36.7604 199.849 36.7917 199.578 36.8125C199.286 36.9583 199.026 37.125 198.797 37.3125C198.568 37.4792 198.328 37.6458 198.078 37.8125C196.245 38.0417 194.432 38.3229 192.641 38.6562C190.849 38.9896 189.036 39.2708 187.203 39.5C186.953 39.6667 186.63 39.7812 186.234 39.8438C185.839 39.8854 185.422 39.9271 184.984 39.9688C184.568 39.9896 184.151 40.0417 183.734 40.125C183.318 40.1875 182.953 40.3125 182.641 40.5C181.286 40.5625 179.974 40.7917 178.703 41.1875C178.474 41.125 178.234 41.0729 177.984 41.0312C177.755 40.9896 177.526 40.9688 177.297 40.9688C177.13 40.9688 176.943 40.9896 176.734 41.0312C176.526 41.0521 176.359 41.1458 176.234 41.3125C175.734 40.9167 175.141 40.7708 174.453 40.875C173.891 40.625 173.391 40.3125 172.953 39.9375C172.536 39.5625 172.214 39.0833 171.984 38.5C172.005 38.1667 172.005 37.9167 171.984 37.75C171.964 37.5625 171.818 37.3646 171.547 37.1562C171.547 37.0104 171.589 36.8958 171.672 36.8125C171.776 36.7292 171.839 36.6146 171.859 36.4688C171.776 36.3229 171.734 36.1458 171.734 35.9375C171.734 35.5833 171.797 35.2292 171.922 34.875C172.047 34.5 172.068 34.1354 171.984 33.7812C172.276 33.3021 172.609 32.8542 172.984 32.4375C173.359 32 173.734 31.5833 174.109 31.1875C174.505 30.7708 174.891 30.3542 175.266 29.9375C175.661 29.5208 176.026 29.0833 176.359 28.625C176.755 28.5 177.109 28.3125 177.422 28.0625C177.755 27.7917 178.068 27.5104 178.359 27.2188C178.672 26.9271 178.984 26.6458 179.297 26.375C179.609 26.1042 179.974 25.8854 180.391 25.7188C180.432 25.5938 180.495 25.4896 180.578 25.4062C180.682 25.3021 180.786 25.2083 180.891 25.125C180.995 25.0417 181.089 24.9479 181.172 24.8438C181.276 24.7396 181.349 24.6146 181.391 24.4688H181.109C180.172 24.4688 179.234 24.5312 178.297 24.6562C177.359 24.7604 176.422 24.8958 175.484 25.0625C174.568 25.2083 173.651 25.3646 172.734 25.5312C171.818 25.6979 170.891 25.8333 169.953 25.9375C169.599 26.125 169.214 26.2917 168.797 26.4375C168.38 26.5833 167.964 26.7292 167.547 26.875C167.151 27.0208 166.766 27.1875 166.391 27.375C165.995 27.5625 165.651 27.7917 165.359 28.0625C165.297 28.0833 165.203 28.0938 165.078 28.0938C164.849 28.0938 164.651 28.0521 164.484 27.9688C164.318 27.8646 164.13 27.7917 163.922 27.75C163.88 27.4167 163.818 27.1042 163.734 26.8125C163.63 26.5 163.578 26.1771 163.578 25.8438C163.578 25.5729 163.62 25.3438 163.703 25.1562C163.995 25.1562 164.203 25.0625 164.328 24.875C164.432 24.6875 164.599 24.5208 164.828 24.375C164.891 24.4375 164.953 24.4688 165.016 24.4688C165.12 24.4688 165.214 24.4271 165.297 24.3438C165.38 24.2604 165.484 24.1771 165.609 24.0938C165.734 24.0104 165.88 23.9375 166.047 23.875C166.214 23.8125 166.432 23.7917 166.703 23.8125C167.328 23.4792 167.911 23.2708 168.453 23.1875C169.016 23.1042 169.63 23.0104 170.297 22.9062C170.464 22.8646 170.578 22.8125 170.641 22.75C170.703 22.6875 170.776 22.5938 170.859 22.4688L171.516 22.5C172.411 22.5417 173.307 22.4896 174.203 22.3438C175.099 22.1771 175.984 22 176.859 21.8125C177.755 21.625 178.651 21.4688 179.547 21.3438C180.464 21.1979 181.38 21.1667 182.297 21.25C182.526 21.1458 182.755 21.0833 182.984 21.0625C183.234 21.0417 183.484 21.0312 183.734 21.0312C184.068 21.0312 184.432 21.0625 184.828 21.125C185.224 21.1875 185.589 21.3021 185.922 21.4688C186.276 21.6354 186.557 21.8646 186.766 22.1562C186.995 22.4271 187.109 22.7708 187.109 23.1875C187.109 23.4167 187.057 23.625 186.953 23.8125C186.849 24 186.724 24.1771 186.578 24.3438C186.432 24.5104 186.276 24.6771 186.109 24.8438C185.943 24.9896 185.786 25.1354 185.641 25.2812C185.411 25.5312 185.193 25.8021 184.984 26.0938C184.797 26.3646 184.568 26.6146 184.297 26.8438C184.151 26.8229 184.036 26.8542 183.953 26.9375C183.891 27.0208 183.786 27.0625 183.641 27.0625C183.37 27.1875 183.214 27.4167 183.172 27.75C182.609 27.9792 182.068 28.25 181.547 28.5625C181.026 28.875 180.599 29.3021 180.266 29.8438C179.828 30.1146 179.411 30.4271 179.016 30.7812C178.641 31.1146 178.276 31.4688 177.922 31.8438C177.568 32.2188 177.214 32.6042 176.859 33C176.526 33.375 176.172 33.7396 175.797 34.0938C175.755 34.4062 175.682 34.6979 175.578 34.9688C175.474 35.2396 175.359 35.5208 175.234 35.8125C175.234 36.0417 175.307 36.2396 175.453 36.4062C175.599 36.5729 175.672 36.7917 175.672 37.0625C176.193 37.1667 176.703 37.25 177.203 37.3125C177.724 37.3542 178.255 37.375 178.797 37.375C179.318 37.375 179.839 37.3438 180.359 37.2812C180.88 37.1979 181.37 37.0417 181.828 36.8125C182.141 36.8958 182.464 36.9375 182.797 36.9375C183.255 36.9375 183.693 36.8958 184.109 36.8125C184.547 36.7083 184.984 36.6667 185.422 36.6875C185.943 36.5 186.474 36.375 187.016 36.3125C187.578 36.2292 188.13 36.1667 188.672 36.125C189.214 36.0625 189.755 35.9896 190.297 35.9062C190.859 35.8229 191.401 35.6667 191.922 35.4375C192.214 35.5 192.484 35.5104 192.734 35.4688C192.984 35.4271 193.255 35.4062 193.547 35.4062C193.755 35.4062 194.005 35.4688 194.297 35.5938C194.63 35.4271 194.974 35.2812 195.328 35.1562C195.703 35.0312 196.078 34.9688 196.453 34.9688C196.599 34.9688 196.745 34.9792 196.891 35C197.036 35.0208 197.172 35.0625 197.297 35.125C197.339 35.1042 197.443 35.0625 197.609 35C197.776 34.9375 197.953 34.875 198.141 34.8125C198.328 34.75 198.505 34.6979 198.672 34.6562C198.839 34.5938 198.943 34.5625 198.984 34.5625C199.151 34.5625 199.224 34.6146 199.203 34.7188C199.203 34.8021 199.255 34.8438 199.359 34.8438C199.714 34.8438 200.057 34.7812 200.391 34.6562C200.724 34.5104 201.068 34.4375 201.422 34.4375C201.568 34.4375 201.703 34.4479 201.828 34.4688C201.953 34.4896 202.099 34.5208 202.266 34.5625C202.349 34.6875 202.422 34.8229 202.484 34.9688C202.547 35.0938 202.651 35.1771 202.797 35.2188ZM215.766 37.375C215.766 37.5833 215.703 37.7604 215.578 37.9062C215.474 38.0312 215.339 38.1458 215.172 38.25C215.026 38.3542 214.87 38.4479 214.703 38.5312C214.557 38.6146 214.422 38.7188 214.297 38.8438C214.214 38.9271 214.151 39.0312 214.109 39.1562C214.089 39.2604 214.036 39.3333 213.953 39.375C213.828 39.4792 213.693 39.5417 213.547 39.5625C213.401 39.5833 213.245 39.6146 213.078 39.6562C212.932 39.6771 212.786 39.7188 212.641 39.7812C212.495 39.8229 212.37 39.9167 212.266 40.0625C211.286 40.1667 210.318 40.3021 209.359 40.4688C208.422 40.6354 207.453 40.7188 206.453 40.7188C206.266 40.7188 206.057 40.7396 205.828 40.7812C205.62 40.8021 205.422 40.8229 205.234 40.8438C204.797 40.8854 204.359 40.9167 203.922 40.9375C203.505 40.9583 203.078 40.9688 202.641 40.9688C202.036 40.9688 201.432 40.9479 200.828 40.9062C200.224 40.8438 199.63 40.75 199.047 40.625C198.901 40.5208 198.734 40.4375 198.547 40.375C198.359 40.3125 198.161 40.25 197.953 40.1875C197.766 40.125 197.589 40.0521 197.422 39.9688C197.255 39.8854 197.13 39.7604 197.047 39.5938C196.734 39.5729 196.453 39.5104 196.203 39.4062C195.974 39.3021 195.755 39.1875 195.547 39.0625C195.359 38.9167 195.161 38.7708 194.953 38.625C194.745 38.4792 194.505 38.3542 194.234 38.25C194.026 37.9583 193.807 37.6771 193.578 37.4062C193.37 37.1146 193.109 36.875 192.797 36.6875C192.734 36.2917 192.63 35.8958 192.484 35.5C192.359 35.1042 192.224 34.7188 192.078 34.3438C191.953 33.9479 191.849 33.5521 191.766 33.1562C191.661 32.7604 191.609 32.3542 191.609 31.9375C191.609 31.6458 191.651 31.2917 191.734 30.875C191.818 30.4583 191.922 30.0417 192.047 29.625C192.193 29.1875 192.359 28.7812 192.547 28.4062C192.734 28.0312 192.922 27.7292 193.109 27.5C193.172 27.4375 193.245 27.3854 193.328 27.3438C193.411 27.3021 193.484 27.2396 193.547 27.1562C193.734 26.9479 193.932 26.7812 194.141 26.6562C194.349 26.5104 194.568 26.3438 194.797 26.1562C194.88 26.0729 194.943 25.9792 194.984 25.875C195.047 25.7708 195.13 25.6771 195.234 25.5938C195.297 25.5521 195.38 25.5417 195.484 25.5625C195.609 25.5833 195.714 25.5625 195.797 25.5C195.88 25.4375 195.922 25.3646 195.922 25.2812C195.922 25.1979 195.953 25.125 196.016 25.0625C196.036 25.0417 196.099 25.0417 196.203 25.0625C196.307 25.0625 196.37 25.0625 196.391 25.0625C196.536 25.0625 196.703 24.9688 196.891 24.7812C197.078 24.5729 197.234 24.4375 197.359 24.375C197.505 24.2917 197.651 24.2396 197.797 24.2188C197.943 24.1771 198.099 24.1146 198.266 24.0312C198.495 23.9062 198.714 23.8125 198.922 23.75C199.151 23.6667 199.38 23.5729 199.609 23.4688C199.734 23.4271 199.849 23.3542 199.953 23.25C200.057 23.1458 200.161 23.0729 200.266 23.0312C200.453 22.9688 200.651 22.9271 200.859 22.9062C201.089 22.8646 201.297 22.8333 201.484 22.8125C201.693 22.7708 201.891 22.7292 202.078 22.6875C202.286 22.625 202.474 22.5208 202.641 22.375H202.891C203.266 22.375 203.63 22.3229 203.984 22.2188C204.339 22.1146 204.703 22.0625 205.078 22.0625C205.182 22.0625 205.339 22.0833 205.547 22.125C205.714 22.0208 205.901 21.9688 206.109 21.9688C206.464 21.9688 206.818 22.0625 207.172 22.25C207.526 22.4167 207.891 22.5 208.266 22.5H208.453C208.536 22.5 208.62 22.4896 208.703 22.4688C208.932 22.6979 209.203 22.8229 209.516 22.8438C209.849 22.8646 210.13 22.9583 210.359 23.125C210.505 23.25 210.62 23.3958 210.703 23.5625C210.807 23.7292 210.891 23.9062 210.953 24.0938L211.141 24.6562C211.203 24.8438 211.286 25.0104 211.391 25.1562C211.286 25.9062 210.974 26.5104 210.453 26.9688C209.953 27.4062 209.318 27.625 208.547 27.625C208.255 27.625 208.005 27.5938 207.797 27.5312C207.609 27.4479 207.432 27.3646 207.266 27.2812C207.12 27.1979 206.964 27.1146 206.797 27.0312C206.63 26.9479 206.443 26.8854 206.234 26.8438C206.464 26.4271 206.609 25.9792 206.672 25.5C206.443 25.3958 206.214 25.3229 205.984 25.2812C205.755 25.2396 205.536 25.1667 205.328 25.0625C204.766 25.2083 204.214 25.3125 203.672 25.375C203.151 25.4167 202.661 25.6354 202.203 26.0312C202.099 26.0104 201.984 25.9896 201.859 25.9688C201.755 25.9479 201.651 25.9375 201.547 25.9375C201.422 25.9375 201.172 26.0312 200.797 26.2188C200.422 26.3854 200.016 26.5833 199.578 26.8125C199.161 27.0417 198.755 27.2708 198.359 27.5C197.984 27.7292 197.724 27.8854 197.578 27.9688C197.411 28.0729 197.266 28.1979 197.141 28.3438C197.016 28.4896 196.891 28.6458 196.766 28.8125C196.641 28.9583 196.516 29.1042 196.391 29.25C196.266 29.375 196.109 29.4688 195.922 29.5312C195.88 29.7604 195.807 29.9583 195.703 30.125C195.599 30.2917 195.484 30.4688 195.359 30.6562C195.339 31.0312 195.297 31.4062 195.234 31.7812C195.193 32.1562 195.172 32.5312 195.172 32.9062V33.3125C195.172 33.4375 195.193 33.5521 195.234 33.6562C195.443 33.9271 195.609 34.2292 195.734 34.5625C195.88 34.8958 196.12 35.125 196.453 35.25C196.474 35.3333 196.464 35.3854 196.422 35.4062C196.401 35.4271 196.38 35.4792 196.359 35.5625C196.484 35.7917 196.641 35.9792 196.828 36.125C197.036 36.25 197.245 36.3854 197.453 36.5312C197.661 36.6562 197.859 36.7917 198.047 36.9375C198.234 37.0833 198.38 37.2708 198.484 37.5C198.797 37.5 199.089 37.5521 199.359 37.6562C199.651 37.7604 199.922 37.875 200.172 38C200.443 38.125 200.693 38.2396 200.922 38.3438C201.172 38.4479 201.422 38.5 201.672 38.5C201.901 38.5 202.109 38.4688 202.297 38.4062C202.839 38.5729 203.38 38.6979 203.922 38.7812C204.484 38.8438 205.047 38.875 205.609 38.875C206.297 38.875 206.984 38.8333 207.672 38.75C208.359 38.6667 209.047 38.5938 209.734 38.5312C209.984 38.4896 210.224 38.4688 210.453 38.4688C210.682 38.4688 210.911 38.4479 211.141 38.4062C211.432 38.3646 211.703 38.2292 211.953 38C212.224 37.7708 212.484 37.6042 212.734 37.5C212.964 37.6458 213.234 37.7188 213.547 37.7188C213.901 37.7188 214.245 37.6667 214.578 37.5625C214.911 37.4375 215.255 37.375 215.609 37.375H215.766ZM251.141 35.2188C251.057 35.5729 250.891 35.8542 250.641 36.0625C250.411 36.25 250.141 36.3958 249.828 36.5C249.516 36.6042 249.182 36.6771 248.828 36.7188C248.495 36.7604 248.193 36.7917 247.922 36.8125C247.63 36.9583 247.37 37.125 247.141 37.3125C246.911 37.4792 246.672 37.6458 246.422 37.8125C244.589 38.0417 242.776 38.3229 240.984 38.6562C239.193 38.9896 237.38 39.2708 235.547 39.5C235.297 39.6667 234.974 39.7812 234.578 39.8438C234.182 39.8854 233.766 39.9271 233.328 39.9688C232.911 39.9896 232.495 40.0417 232.078 40.125C231.661 40.1875 231.297 40.3125 230.984 40.5C229.63 40.5625 228.318 40.7917 227.047 41.1875C226.818 41.125 226.578 41.0729 226.328 41.0312C226.099 40.9896 225.87 40.9688 225.641 40.9688C225.474 40.9688 225.286 40.9896 225.078 41.0312C224.87 41.0521 224.703 41.1458 224.578 41.3125C224.078 40.9167 223.484 40.7708 222.797 40.875C222.234 40.625 221.734 40.3125 221.297 39.9375C220.88 39.5625 220.557 39.0833 220.328 38.5C220.349 38.1667 220.349 37.9167 220.328 37.75C220.307 37.5625 220.161 37.3646 219.891 37.1562C219.891 37.0104 219.932 36.8958 220.016 36.8125C220.12 36.7292 220.182 36.6146 220.203 36.4688C220.12 36.3229 220.078 36.1458 220.078 35.9375C220.078 35.5833 220.141 35.2292 220.266 34.875C220.391 34.5 220.411 34.1354 220.328 33.7812C220.62 33.3021 220.953 32.8542 221.328 32.4375C221.703 32 222.078 31.5833 222.453 31.1875C222.849 30.7708 223.234 30.3542 223.609 29.9375C224.005 29.5208 224.37 29.0833 224.703 28.625C225.099 28.5 225.453 28.3125 225.766 28.0625C226.099 27.7917 226.411 27.5104 226.703 27.2188C227.016 26.9271 227.328 26.6458 227.641 26.375C227.953 26.1042 228.318 25.8854 228.734 25.7188C228.776 25.5938 228.839 25.4896 228.922 25.4062C229.026 25.3021 229.13 25.2083 229.234 25.125C229.339 25.0417 229.432 24.9479 229.516 24.8438C229.62 24.7396 229.693 24.6146 229.734 24.4688H229.453C228.516 24.4688 227.578 24.5312 226.641 24.6562C225.703 24.7604 224.766 24.8958 223.828 25.0625C222.911 25.2083 221.995 25.3646 221.078 25.5312C220.161 25.6979 219.234 25.8333 218.297 25.9375C217.943 26.125 217.557 26.2917 217.141 26.4375C216.724 26.5833 216.307 26.7292 215.891 26.875C215.495 27.0208 215.109 27.1875 214.734 27.375C214.339 27.5625 213.995 27.7917 213.703 28.0625C213.641 28.0833 213.547 28.0938 213.422 28.0938C213.193 28.0938 212.995 28.0521 212.828 27.9688C212.661 27.8646 212.474 27.7917 212.266 27.75C212.224 27.4167 212.161 27.1042 212.078 26.8125C211.974 26.5 211.922 26.1771 211.922 25.8438C211.922 25.5729 211.964 25.3438 212.047 25.1562C212.339 25.1562 212.547 25.0625 212.672 24.875C212.776 24.6875 212.943 24.5208 213.172 24.375C213.234 24.4375 213.297 24.4688 213.359 24.4688C213.464 24.4688 213.557 24.4271 213.641 24.3438C213.724 24.2604 213.828 24.1771 213.953 24.0938C214.078 24.0104 214.224 23.9375 214.391 23.875C214.557 23.8125 214.776 23.7917 215.047 23.8125C215.672 23.4792 216.255 23.2708 216.797 23.1875C217.359 23.1042 217.974 23.0104 218.641 22.9062C218.807 22.8646 218.922 22.8125 218.984 22.75C219.047 22.6875 219.12 22.5938 219.203 22.4688L219.859 22.5C220.755 22.5417 221.651 22.4896 222.547 22.3438C223.443 22.1771 224.328 22 225.203 21.8125C226.099 21.625 226.995 21.4688 227.891 21.3438C228.807 21.1979 229.724 21.1667 230.641 21.25C230.87 21.1458 231.099 21.0833 231.328 21.0625C231.578 21.0417 231.828 21.0312 232.078 21.0312C232.411 21.0312 232.776 21.0625 233.172 21.125C233.568 21.1875 233.932 21.3021 234.266 21.4688C234.62 21.6354 234.901 21.8646 235.109 22.1562C235.339 22.4271 235.453 22.7708 235.453 23.1875C235.453 23.4167 235.401 23.625 235.297 23.8125C235.193 24 235.068 24.1771 234.922 24.3438C234.776 24.5104 234.62 24.6771 234.453 24.8438C234.286 24.9896 234.13 25.1354 233.984 25.2812C233.755 25.5312 233.536 25.8021 233.328 26.0938C233.141 26.3646 232.911 26.6146 232.641 26.8438C232.495 26.8229 232.38 26.8542 232.297 26.9375C232.234 27.0208 232.13 27.0625 231.984 27.0625C231.714 27.1875 231.557 27.4167 231.516 27.75C230.953 27.9792 230.411 28.25 229.891 28.5625C229.37 28.875 228.943 29.3021 228.609 29.8438C228.172 30.1146 227.755 30.4271 227.359 30.7812C226.984 31.1146 226.62 31.4688 226.266 31.8438C225.911 32.2188 225.557 32.6042 225.203 33C224.87 33.375 224.516 33.7396 224.141 34.0938C224.099 34.4062 224.026 34.6979 223.922 34.9688C223.818 35.2396 223.703 35.5208 223.578 35.8125C223.578 36.0417 223.651 36.2396 223.797 36.4062C223.943 36.5729 224.016 36.7917 224.016 37.0625C224.536 37.1667 225.047 37.25 225.547 37.3125C226.068 37.3542 226.599 37.375 227.141 37.375C227.661 37.375 228.182 37.3438 228.703 37.2812C229.224 37.1979 229.714 37.0417 230.172 36.8125C230.484 36.8958 230.807 36.9375 231.141 36.9375C231.599 36.9375 232.036 36.8958 232.453 36.8125C232.891 36.7083 233.328 36.6667 233.766 36.6875C234.286 36.5 234.818 36.375 235.359 36.3125C235.922 36.2292 236.474 36.1667 237.016 36.125C237.557 36.0625 238.099 35.9896 238.641 35.9062C239.203 35.8229 239.745 35.6667 240.266 35.4375C240.557 35.5 240.828 35.5104 241.078 35.4688C241.328 35.4271 241.599 35.4062 241.891 35.4062C242.099 35.4062 242.349 35.4688 242.641 35.5938C242.974 35.4271 243.318 35.2812 243.672 35.1562C244.047 35.0312 244.422 34.9688 244.797 34.9688C244.943 34.9688 245.089 34.9792 245.234 35C245.38 35.0208 245.516 35.0625 245.641 35.125C245.682 35.1042 245.786 35.0625 245.953 35C246.12 34.9375 246.297 34.875 246.484 34.8125C246.672 34.75 246.849 34.6979 247.016 34.6562C247.182 34.5938 247.286 34.5625 247.328 34.5625C247.495 34.5625 247.568 34.6146 247.547 34.7188C247.547 34.8021 247.599 34.8438 247.703 34.8438C248.057 34.8438 248.401 34.7812 248.734 34.6562C249.068 34.5104 249.411 34.4375 249.766 34.4375C249.911 34.4375 250.047 34.4479 250.172 34.4688C250.297 34.4896 250.443 34.5208 250.609 34.5625C250.693 34.6875 250.766 34.8229 250.828 34.9688C250.891 35.0938 250.995 35.1771 251.141 35.2188ZM260.453 23.125V23.25C260.307 23.2917 260.234 23.3958 260.234 23.5625C260.005 23.6667 259.766 23.75 259.516 23.8125C259.266 23.8542 259.026 23.9271 258.797 24.0312C258.568 24.0104 258.328 24 258.078 24C257.849 23.9792 257.62 23.9688 257.391 23.9688C256.766 23.9688 256.141 23.9896 255.516 24.0312C254.891 24.0729 254.266 24.0729 253.641 24.0312C253.349 24.1979 253.026 24.3333 252.672 24.4375C252.339 24.5208 252.016 24.5625 251.703 24.5625C251.453 24.5625 251.234 24.5312 251.047 24.4688C250.547 24.7188 249.995 24.9271 249.391 25.0938C248.807 25.2604 248.214 25.4271 247.609 25.5938C247.005 25.7396 246.422 25.9167 245.859 26.125C245.318 26.3125 244.839 26.5833 244.422 26.9375C244.38 27.2292 244.349 27.5208 244.328 27.8125C244.307 28.0833 244.297 28.3542 244.297 28.625C244.297 28.9167 244.307 29.1875 244.328 29.4375C244.37 29.6875 244.443 29.9375 244.547 30.1875C244.651 30.2292 244.766 30.2604 244.891 30.2812C245.036 30.3021 245.161 30.3125 245.266 30.3125C245.37 30.3125 245.474 30.3021 245.578 30.2812C245.682 30.2396 245.755 30.1667 245.797 30.0625C246.109 30.0208 246.422 30.0104 246.734 30.0312C247.047 30.0312 247.359 30.0312 247.672 30.0312C247.984 30.0312 248.286 30.0208 248.578 30C248.891 29.9792 249.193 29.9271 249.484 29.8438C249.818 29.7604 250.141 29.7083 250.453 29.6875C250.786 29.6667 251.109 29.6458 251.422 29.625C251.734 29.6042 252.057 29.5729 252.391 29.5312C252.724 29.4688 253.068 29.3542 253.422 29.1875C253.693 29.2917 253.964 29.3438 254.234 29.3438C254.526 29.3438 254.807 29.3646 255.078 29.4062C255.224 29.5104 255.339 29.625 255.422 29.75C255.526 29.875 255.578 30.0208 255.578 30.1875C255.578 30.4792 255.474 30.7708 255.266 31.0625C255.057 31.3542 254.891 31.625 254.766 31.875H254.422C253.922 31.875 253.432 31.9479 252.953 32.0938C252.495 32.2188 252.026 32.375 251.547 32.5625C251.089 32.7292 250.62 32.8854 250.141 33.0312C249.682 33.1562 249.203 33.2188 248.703 33.2188C248.62 33.2188 248.568 33.2708 248.547 33.375C248.547 33.4583 248.526 33.5208 248.484 33.5625C248.38 33.5417 248.224 33.5312 248.016 33.5312C247.536 33.5312 247.078 33.5833 246.641 33.6875C246.203 33.7917 245.755 33.8438 245.297 33.8438C245.172 33.8438 245.047 33.8438 244.922 33.8438C244.797 33.8229 244.672 33.8021 244.547 33.7812C244.443 33.9479 244.307 34.0625 244.141 34.125C243.974 34.1667 243.818 34.25 243.672 34.375C243.609 34.5625 243.568 34.7917 243.547 35.0625C243.547 35.3333 243.536 35.6146 243.516 35.9062C243.516 36.1771 243.495 36.4375 243.453 36.6875C243.411 36.9375 243.328 37.1354 243.203 37.2812C243.224 37.3854 243.307 37.4271 243.453 37.4062C243.599 37.3646 243.672 37.4271 243.672 37.5938C243.672 37.7812 243.651 37.9792 243.609 38.1875C243.568 38.3958 243.547 38.6042 243.547 38.8125C243.547 39.2083 243.589 39.6458 243.672 40.125C243.776 40.5833 243.922 41.0104 244.109 41.4062C244.318 41.8021 244.589 42.1354 244.922 42.4062C245.255 42.6562 245.672 42.7812 246.172 42.7812C246.505 42.7812 246.818 42.7188 247.109 42.5938C247.401 42.4688 247.641 42.2604 247.828 41.9688L247.984 41.9375C248.068 41.9375 248.141 41.9479 248.203 41.9688C248.286 41.9896 248.37 42 248.453 42C248.578 42 248.734 41.9271 248.922 41.7812C249.13 41.6146 249.349 41.4271 249.578 41.2188C249.828 41.0104 250.078 40.8125 250.328 40.625C250.578 40.4167 250.818 40.2708 251.047 40.1875C251.193 39.8958 251.328 39.6042 251.453 39.3125C251.599 39.0208 251.807 38.7917 252.078 38.625V37.7188C252.286 37.4896 252.505 37.2812 252.734 37.0938C252.984 36.9062 253.172 36.6667 253.297 36.375C253.401 36.4167 253.495 36.4479 253.578 36.4688C253.682 36.4896 253.786 36.5 253.891 36.5C253.995 36.5 254.099 36.4896 254.203 36.4688C254.328 36.4479 254.443 36.4167 254.547 36.375C254.714 36.6042 254.839 36.8646 254.922 37.1562C255.026 37.4271 255.151 37.6875 255.297 37.9375C255.109 38.3125 254.891 38.7604 254.641 39.2812C254.391 39.8021 254.12 40.3229 253.828 40.8438C253.536 41.3646 253.224 41.8646 252.891 42.3438C252.578 42.8021 252.266 43.1562 251.953 43.4062C251.891 43.4688 251.755 43.5417 251.547 43.625C251.318 43.7917 251.109 43.9479 250.922 44.0938C250.734 44.2604 250.557 44.4479 250.391 44.6562C249.786 44.8438 249.203 45.0938 248.641 45.4062C248.099 45.7188 247.557 46.0208 247.016 46.3125C246.766 46.25 246.495 46.2188 246.203 46.2188C245.953 46.2188 245.703 46.2292 245.453 46.25C245.203 46.2917 244.932 46.3125 244.641 46.3125C244.557 46.2083 244.432 46.1354 244.266 46.0938C244.12 46.0729 244.068 45.9688 244.109 45.7812C243.401 45.7396 242.828 45.5417 242.391 45.1875C241.953 44.8542 241.578 44.4375 241.266 43.9375C240.974 43.4375 240.734 42.8958 240.547 42.3125C240.359 41.7292 240.161 41.1667 239.953 40.625V40.5312C239.953 40.4271 239.995 40.3646 240.078 40.3438C240.161 40.3229 240.203 40.2604 240.203 40.1562C240.203 40.1146 240.193 40.0833 240.172 40.0625C240.109 39.8333 240.057 39.6354 240.016 39.4688C239.974 39.3021 239.953 39.1042 239.953 38.875C239.953 38.5417 239.974 38.2188 240.016 37.9062C240.057 37.5729 240.078 37.2396 240.078 36.9062C240.078 36.5729 240.036 36.2812 239.953 36.0312C240.036 35.9271 240.109 35.7917 240.172 35.625C240.214 35.4375 240.245 35.25 240.266 35.0625C240.286 34.875 240.297 34.6875 240.297 34.5C240.318 34.3125 240.349 34.1458 240.391 34C240.307 33.7708 240.234 33.5729 240.172 33.4062C240.109 33.2188 240.078 33 240.078 32.75V32.5312C240.286 32.1771 240.464 31.8125 240.609 31.4375C240.755 31.0625 240.911 30.6771 241.078 30.2812V30.1875C241.078 29.5833 241.057 28.9792 241.016 28.375C240.974 27.7708 240.953 27.1667 240.953 26.5625V25.9688C240.953 25.7604 240.964 25.5625 240.984 25.375C241.151 25.2917 241.276 25.1771 241.359 25.0312C241.443 24.8854 241.568 24.7708 241.734 24.6875H242.766L242.953 24.375C243.016 24.2708 243.057 24.1562 243.078 24.0312C243.307 23.9688 243.526 23.8854 243.734 23.7812C243.964 23.6562 244.172 23.5312 244.359 23.4062C244.651 23.2396 244.911 23.0938 245.141 22.9688C245.391 22.8229 245.63 22.7083 245.859 22.625C246.109 22.5208 246.37 22.4375 246.641 22.375C246.911 22.3125 247.224 22.2604 247.578 22.2188C247.745 22.2188 247.849 22.1875 247.891 22.125C247.953 22.0625 248.036 21.9896 248.141 21.9062C248.391 21.9479 248.641 21.9896 248.891 22.0312C249.141 22.0521 249.391 22.0625 249.641 22.0625C250.141 22.0625 250.609 21.9688 251.047 21.7812C251.672 21.7812 252.286 21.7708 252.891 21.75C253.516 21.7292 254.141 21.7188 254.766 21.7188C255.307 21.7188 255.849 21.7396 256.391 21.7812C256.932 21.8229 257.464 21.8958 257.984 22C258.172 21.9375 258.38 21.9062 258.609 21.9062C258.859 21.9062 259.109 21.9375 259.359 22C259.63 22.0417 259.891 22.0417 260.141 22C260.161 22.2292 260.214 22.4271 260.297 22.5938C260.401 22.7396 260.453 22.9167 260.453 23.125ZM283.359 25.625C283.359 25.9167 283.349 26.2083 283.328 26.5C283.307 26.7917 283.276 27.0833 283.234 27.375C283.089 27.5833 282.943 27.7708 282.797 27.9375C282.672 28.0833 282.589 28.2708 282.547 28.5C282.318 28.6667 282.057 28.8958 281.766 29.1875C281.495 29.4792 281.38 29.7708 281.422 30.0625H280.984C280.734 30.4375 280.443 30.7604 280.109 31.0312C279.776 31.3021 279.422 31.5625 279.047 31.8125L277.953 32.5312C277.599 32.7604 277.266 33.0312 276.953 33.3438C276.786 33.3646 276.651 33.3958 276.547 33.4375C276.443 33.4792 276.307 33.4896 276.141 33.4688C275.495 33.8854 274.818 34.25 274.109 34.5625C273.422 34.875 272.724 35.1875 272.016 35.5C271.328 35.7917 270.641 36.1042 269.953 36.4375C269.266 36.7708 268.609 37.1562 267.984 37.5938C267.922 37.5729 267.839 37.5625 267.734 37.5625C267.547 37.5625 267.359 37.5938 267.172 37.6562C266.984 37.6979 266.797 37.7188 266.609 37.7188C266.526 37.7188 266.411 37.7083 266.266 37.6875C266.141 37.6667 266.047 37.6354 265.984 37.5938C265.88 37.5312 265.786 37.4375 265.703 37.3125C265.62 37.1875 265.557 37.0521 265.516 36.9062C265.474 36.7396 265.443 36.5833 265.422 36.4375C265.401 36.2917 265.391 36.1667 265.391 36.0625C265.391 35.9375 265.401 35.8021 265.422 35.6562C265.443 35.5104 265.474 35.375 265.516 35.25C266.12 35.2083 266.724 35.0521 267.328 34.7812C267.953 34.5104 268.547 34.25 269.109 34C269.255 33.9375 269.37 33.8646 269.453 33.7812C269.557 33.6771 269.661 33.5938 269.766 33.5312C269.87 33.4479 269.984 33.375 270.109 33.3125C270.234 33.25 270.391 33.2188 270.578 33.2188H270.672C271.984 32.6146 273.266 31.9583 274.516 31.25C275.786 30.5417 277.047 29.8229 278.297 29.0938C278.359 28.9062 278.453 28.7188 278.578 28.5312C278.724 28.3438 278.859 28.1667 278.984 28C279.109 27.8125 279.224 27.625 279.328 27.4375C279.432 27.25 279.484 27.0625 279.484 26.875C279.484 26.5 279.307 26.1875 278.953 25.9375H278.828C278.578 25.9375 278.359 25.9062 278.172 25.8438C277.984 25.7604 277.807 25.6875 277.641 25.625C277.474 25.5417 277.286 25.4792 277.078 25.4375C276.87 25.375 276.63 25.3542 276.359 25.375C276.255 25.2917 276.089 25.2188 275.859 25.1562C275.63 25.0938 275.443 25.0625 275.297 25.0625C274.547 25.0625 273.807 25.1146 273.078 25.2188C272.349 25.3021 271.62 25.3542 270.891 25.375C270.703 25.4792 270.526 25.5729 270.359 25.6562C270.193 25.7396 269.995 25.7812 269.766 25.7812C269.661 25.7812 269.568 25.7812 269.484 25.7812C269.401 25.7604 269.307 25.7396 269.203 25.7188C268.807 25.8854 268.359 26.0312 267.859 26.1562C267.359 26.2604 266.859 26.3958 266.359 26.5625C265.88 26.7083 265.432 26.8958 265.016 27.125C264.599 27.3542 264.276 27.6667 264.047 28.0625C264.047 28.1667 264.068 28.2604 264.109 28.3438C264.151 28.4062 264.172 28.4896 264.172 28.5938V28.7188C264.047 28.8438 263.964 28.9896 263.922 29.1562C263.88 29.3021 263.849 29.4583 263.828 29.625C263.807 29.7708 263.776 29.9271 263.734 30.0938C263.714 30.2396 263.641 30.3854 263.516 30.5312C263.599 30.8438 263.641 31.1875 263.641 31.5625C263.641 31.9792 263.609 32.3958 263.547 32.8125C263.505 33.2292 263.484 33.6458 263.484 34.0625C263.484 34.4583 263.526 34.8125 263.609 35.125C263.484 35.25 263.432 35.4375 263.453 35.6875C263.474 35.9375 263.422 36.125 263.297 36.25C263.297 36.4167 263.339 36.5312 263.422 36.5938C263.526 36.6562 263.589 36.7604 263.609 36.9062C263.526 37.2604 263.484 37.6458 263.484 38.0625C263.484 38.6667 263.547 39.2812 263.672 39.9062C263.818 40.5312 263.984 41.1458 264.172 41.75C264.505 41.6458 264.859 41.5625 265.234 41.5C265.63 41.4167 266.005 41.375 266.359 41.375C266.422 41.375 266.484 41.3854 266.547 41.4062C266.609 41.4062 266.672 41.4062 266.734 41.4062C266.776 41.6354 266.859 41.8438 266.984 42.0312C267.109 42.2188 267.224 42.4271 267.328 42.6562C267.224 42.8021 267.13 42.9167 267.047 43C266.984 43.1042 266.953 43.2396 266.953 43.4062C266.661 43.4271 266.422 43.5 266.234 43.625C266.047 43.7708 265.839 43.9271 265.609 44.0938H265.484C265.13 44.0938 264.839 44.1562 264.609 44.2812C264.38 44.4271 264.12 44.5833 263.828 44.75C263.578 44.6458 263.328 44.5938 263.078 44.5938C262.807 44.5938 262.536 44.6458 262.266 44.75C261.932 44.6042 261.661 44.375 261.453 44.0625C261.245 43.7708 261.068 43.4375 260.922 43.0625C260.776 42.7083 260.641 42.3438 260.516 41.9688C260.411 41.5938 260.286 41.25 260.141 40.9375V40.4375C260.141 39.9583 260.099 39.5 260.016 39.0625C259.953 38.6042 259.922 38.1354 259.922 37.6562C259.922 37.4688 259.932 37.2708 259.953 37.0625C259.995 36.8542 260.057 36.6562 260.141 36.4688C260.099 36.2812 260.078 36.1042 260.078 35.9375V35.3438C260.078 34.7188 260.099 34.0938 260.141 33.4688C260.203 32.8438 260.234 32.2188 260.234 31.5938C260.234 31.1354 260.203 30.6667 260.141 30.1875C260.036 30.2292 259.943 30.2708 259.859 30.3125C259.776 30.3542 259.682 30.375 259.578 30.375C259.474 30.375 259.37 30.3646 259.266 30.3438C259.182 30.3229 259.099 30.3021 259.016 30.2812C258.807 30.0938 258.661 29.8646 258.578 29.5938C258.495 29.3229 258.38 29.0729 258.234 28.8438C258.234 28.4479 258.297 28.125 258.422 27.875C258.526 27.6042 258.661 27.3646 258.828 27.1562C258.995 26.9271 259.161 26.7083 259.328 26.5C259.516 26.2917 259.672 26.0312 259.797 25.7188H259.922C260.255 25.7188 260.589 25.6146 260.922 25.4062C261.255 25.1771 261.63 25.0625 262.047 25.0625C262.193 24.875 262.391 24.7188 262.641 24.5938C262.891 24.4479 263.151 24.3333 263.422 24.25C263.714 24.1667 263.995 24.1146 264.266 24.0938C264.557 24.0521 264.828 24.0312 265.078 24.0312C265.161 23.8854 265.286 23.7917 265.453 23.75C265.62 23.6875 265.786 23.6354 265.953 23.5938C266.141 23.5312 266.307 23.4792 266.453 23.4375C266.62 23.375 266.755 23.2708 266.859 23.125C267.026 23.1667 267.182 23.1875 267.328 23.1875C267.599 23.1875 267.859 23.1562 268.109 23.0938C268.359 23.0104 268.609 22.9271 268.859 22.8438C269.109 22.7396 269.359 22.6458 269.609 22.5625C269.88 22.4792 270.161 22.4375 270.453 22.4375C270.557 22.4375 270.661 22.4479 270.766 22.4688C270.87 22.4688 270.974 22.4688 271.078 22.4688C271.245 22.4688 271.339 22.4062 271.359 22.2812C271.401 22.1562 271.474 22.0625 271.578 22C271.641 22.0208 271.755 22.0312 271.922 22.0312C272.339 22.0312 272.745 22 273.141 21.9375C273.536 21.8542 273.943 21.8125 274.359 21.8125C274.547 21.8125 274.734 21.8229 274.922 21.8438C275.109 21.8646 275.297 21.9167 275.484 22C275.526 21.9375 275.568 21.8854 275.609 21.8438C275.651 21.8021 275.682 21.75 275.703 21.6875C276.724 21.75 277.682 21.9583 278.578 22.3125C279.495 22.6667 280.443 22.9792 281.422 23.25C281.547 23.4375 281.693 23.6042 281.859 23.75L282.391 24.1875C282.578 24.3333 282.755 24.4792 282.922 24.625C283.089 24.7708 283.234 24.9479 283.359 25.1562V25.625ZM291.141 38.7188C291.036 38.8854 290.911 39.0417 290.766 39.1875C290.62 39.3125 290.484 39.4479 290.359 39.5938C290.214 39.6562 290.047 39.6875 289.859 39.6875C289.693 39.6875 289.526 39.6875 289.359 39.6875C289.214 39.6667 289.068 39.6667 288.922 39.6875C288.797 39.6875 288.693 39.7292 288.609 39.8125C288.443 39.7708 288.318 39.6979 288.234 39.5938C288.151 39.4688 288.005 39.3958 287.797 39.375C287.714 39.3542 287.63 39.3542 287.547 39.375C287.234 39.0208 286.943 38.6458 286.672 38.25C286.422 37.8542 286.182 37.4792 285.953 37.125C285.932 36.3542 285.87 35.5729 285.766 34.7812C285.745 34.5938 285.714 34.4062 285.672 34.2188C285.63 34.0312 285.599 33.8542 285.578 33.6875C285.578 33.4792 285.589 33.2812 285.609 33.0938C285.651 32.8854 285.682 32.6979 285.703 32.5312C285.786 31.9271 285.88 31.3333 285.984 30.75C286.089 30.1667 286.182 29.5729 286.266 28.9688C286.349 28.4271 286.391 27.8646 286.391 27.2812C286.391 26.6771 286.297 26.1146 286.109 25.5938L286.078 25.4375C286.12 25.2708 286.161 25.1354 286.203 25.0312C286.266 24.9062 286.307 24.7708 286.328 24.625C286.37 24.3958 286.318 24.2292 286.172 24.125C286.234 23.9583 286.339 23.8542 286.484 23.8125C286.63 23.75 286.714 23.625 286.734 23.4375C286.755 23.3542 286.755 23.2708 286.734 23.1875C286.901 23.125 287.068 23.0729 287.234 23.0312C287.422 22.9688 287.599 22.9583 287.766 23C288.036 23.0417 288.276 23.1354 288.484 23.2812C288.693 23.4062 288.891 23.5521 289.078 23.7188C289.411 24.7188 289.547 25.7812 289.484 26.9062C289.422 28.0104 289.318 29.125 289.172 30.25C289.026 31.375 288.932 32.4792 288.891 33.5625C288.849 34.625 289.016 35.6146 289.391 36.5312L289.453 36.5625C289.557 36.5833 289.641 36.5521 289.703 36.4688C289.766 36.3646 289.849 36.3229 289.953 36.3438C290.036 36.3854 290.089 36.4062 290.109 36.4062C290.193 36.8229 290.328 37.2188 290.516 37.5938C290.703 37.9688 290.911 38.3438 291.141 38.7188ZM324.172 39.0625C324.068 39.3958 324.036 39.7292 324.078 40.0625C324.016 40.1458 323.943 40.1979 323.859 40.2188C323.776 40.2396 323.693 40.2708 323.609 40.3125C323.526 40.3333 323.453 40.375 323.391 40.4375C323.349 40.4792 323.349 40.5729 323.391 40.7188C322.703 40.7604 322.047 40.9062 321.422 41.1562C320.797 41.4062 320.182 41.6771 319.578 41.9688C319.266 41.8646 318.995 41.7396 318.766 41.5938C318.536 41.4479 318.245 41.3542 317.891 41.3125C317.536 40.6042 317.203 39.8646 316.891 39.0938C316.599 38.3021 316.453 37.5104 316.453 36.7188C316.453 36.1354 316.557 35.6042 316.766 35.125C316.766 34.5 316.818 33.8854 316.922 33.2812C317.026 32.6771 317.141 32.0833 317.266 31.5C317.411 30.8958 317.536 30.2917 317.641 29.6875C317.745 29.0833 317.797 28.4688 317.797 27.8438V27.1562C317.755 27.1562 317.703 27.2083 317.641 27.3125C317.578 27.3958 317.516 27.5 317.453 27.625C317.411 27.7292 317.37 27.8333 317.328 27.9375C317.286 28.0417 317.255 28.1042 317.234 28.125C316.88 28.3958 316.599 28.7396 316.391 29.1562C316.203 29.5521 315.995 29.9271 315.766 30.2812C315.474 30.7188 315.161 31.1458 314.828 31.5625C314.516 31.9792 314.12 32.3021 313.641 32.5312V32.5938C313.641 32.6979 313.609 32.7708 313.547 32.8125C313.484 32.8542 313.474 32.9583 313.516 33.125C312.995 33.2917 312.505 33.5312 312.047 33.8438C311.609 34.1562 311.245 34.5521 310.953 35.0312C310.536 35.1354 310.141 35.2812 309.766 35.4688C309.411 35.6354 309.047 35.8229 308.672 36.0312C308.505 36.1146 308.328 36.2188 308.141 36.3438C307.953 36.4688 307.766 36.5521 307.578 36.5938C307.411 36.6562 307.182 36.6979 306.891 36.7188C306.62 36.7396 306.328 36.7604 306.016 36.7812C305.724 36.8021 305.432 36.8125 305.141 36.8125H304.453C304.349 36.8125 304.214 36.7604 304.047 36.6562C303.88 36.5521 303.693 36.4375 303.484 36.3125C303.297 36.1875 303.099 36.0729 302.891 35.9688C302.682 35.8438 302.484 35.7604 302.297 35.7188C302.13 35.1771 301.891 34.6979 301.578 34.2812C301.286 33.8438 300.974 33.4062 300.641 32.9688C300.536 32.4688 300.391 31.9479 300.203 31.4062C300.036 30.8646 299.734 30.4167 299.297 30.0625C299.401 29.9167 299.453 29.75 299.453 29.5625C299.453 29.3333 299.401 29.1146 299.297 28.9062C299.193 28.6979 299.141 28.4688 299.141 28.2188C299.141 28.0521 299.151 27.9271 299.172 27.8438C298.943 28.0938 298.776 28.4167 298.672 28.8125C298.589 29.1875 298.547 29.5312 298.547 29.8438C298.547 30.0938 298.578 30.3229 298.641 30.5312C298.432 30.8229 298.297 31.1875 298.234 31.625C298.193 32.0625 298.172 32.4479 298.172 32.7812C298.172 33.1979 298.203 33.6042 298.266 34C297.932 34.3333 297.766 34.7396 297.766 35.2188C297.766 35.4896 297.828 35.7292 297.953 35.9375C297.953 36.0208 297.932 36.0833 297.891 36.125C297.849 36.1667 297.797 36.1979 297.734 36.2188C297.693 36.2396 297.641 36.2708 297.578 36.3125C297.536 36.3333 297.516 36.3854 297.516 36.4688C297.516 36.5729 297.516 36.6875 297.516 36.8125C297.536 36.9375 297.547 37.0625 297.547 37.1875C297.547 37.4792 297.536 37.7812 297.516 38.0938C297.495 38.4062 297.484 38.7083 297.484 39C297.484 39.6042 297.536 40.0417 297.641 40.3125C297.766 40.5625 297.911 40.75 298.078 40.875C298.266 41 298.464 41.125 298.672 41.25C298.88 41.375 299.089 41.6146 299.297 41.9688C299.234 42.1562 299.12 42.3125 298.953 42.4375C298.807 42.5417 298.661 42.6562 298.516 42.7812C298.391 42.8854 298.276 43.0104 298.172 43.1562C298.068 43.3021 298.026 43.5104 298.047 43.7812H297.891C297.62 43.7812 297.359 43.8229 297.109 43.9062C296.859 43.9896 296.599 44.0312 296.328 44.0312C296.266 44.0312 296.203 44.0208 296.141 44C296.078 44 296.016 44 295.953 44L295.641 43.8125C295.536 43.75 295.432 43.7188 295.328 43.7188C295.224 43.7188 295.089 43.7396 294.922 43.7812C294.63 42.8438 294.401 41.875 294.234 40.875C294.089 39.875 294.016 38.8958 294.016 37.9375C294.016 37.8333 294.036 37.7292 294.078 37.625C294.141 37.5 294.224 37.4583 294.328 37.5V36.9062C294.328 36.2604 294.38 35.6354 294.484 35.0312C294.609 34.4062 294.672 33.7604 294.672 33.0938C294.672 32.9062 294.661 32.7188 294.641 32.5312C294.641 32.3438 294.63 32.1667 294.609 32C294.714 31.6458 294.818 31.2917 294.922 30.9375C295.047 30.5625 295.109 30.1771 295.109 29.7812C295.109 29.6146 295.078 29.4167 295.016 29.1875C295.182 29.0625 295.307 28.9062 295.391 28.7188C295.474 28.5104 295.536 28.2917 295.578 28.0625C295.62 27.8125 295.651 27.5729 295.672 27.3438C295.693 27.1146 295.714 26.9062 295.734 26.7188C295.943 26.3021 296.057 25.8542 296.078 25.375C296.099 24.8958 296.203 24.4479 296.391 24.0312C296.37 23.9479 296.359 23.8021 296.359 23.5938C296.359 23.1771 296.422 22.7604 296.547 22.3438C296.693 21.9062 296.974 21.5729 297.391 21.3438C297.766 21.4896 298.203 21.5625 298.703 21.5625C299.182 21.5625 299.641 21.4896 300.078 21.3438C300.203 21.3854 300.318 21.4375 300.422 21.5C300.526 21.5417 300.63 21.5938 300.734 21.6562C300.859 21.6979 300.984 21.7396 301.109 21.7812C301.234 21.8021 301.38 21.8021 301.547 21.7812C301.755 22.3854 301.932 23 302.078 23.625C302.245 24.25 302.37 24.8854 302.453 25.5312C302.495 25.8021 302.505 26.0938 302.484 26.4062C302.484 26.7188 302.505 27.0104 302.547 27.2812C302.568 27.4479 302.62 27.6042 302.703 27.75C302.786 27.875 302.87 28.0208 302.953 28.1875C303.036 28.3542 303.099 28.5417 303.141 28.75C303.203 28.9583 303.224 29.2188 303.203 29.5312C303.432 30.0729 303.682 30.5938 303.953 31.0938C304.245 31.5729 304.557 32.0521 304.891 32.5312C305.078 32.5938 305.245 32.6771 305.391 32.7812C305.536 32.8646 305.63 33.0104 305.672 33.2188C305.859 33.2188 306.026 33.25 306.172 33.3125L306.703 33.4688C307.495 33.2188 308.224 32.8854 308.891 32.4688C309.578 32.0521 310.297 31.6979 311.047 31.4062C311.964 30.5104 312.755 29.5208 313.422 28.4375C314.089 27.3333 314.755 26.2396 315.422 25.1562V24.4688C315.547 24.4062 315.651 24.3333 315.734 24.25C315.839 24.1458 315.964 24.0729 316.109 24.0312C316.13 23.7812 316.182 23.5417 316.266 23.3125C316.37 23.0625 316.474 22.8333 316.578 22.625C316.703 22.3958 316.807 22.1771 316.891 21.9688C316.974 21.7396 317.016 21.5 317.016 21.25C317.016 21.1042 317.005 20.9792 316.984 20.875C317.297 20.5625 317.672 20.4062 318.109 20.4062C318.526 20.4062 318.943 20.5104 319.359 20.7188C319.797 20.9062 320.203 21.0833 320.578 21.25C320.807 21.75 320.974 22.2812 321.078 22.8438C321.203 23.3854 321.286 23.9479 321.328 24.5312C321.37 25.1146 321.391 25.6979 321.391 26.2812V28.5C321.37 28.6667 321.307 28.7917 321.203 28.875C321.12 28.9375 321.057 29.0417 321.016 29.1875V29.5C321.016 29.6042 321.005 29.7083 320.984 29.8125C320.984 30.25 320.932 30.7083 320.828 31.1875C320.724 31.7917 320.589 32.4062 320.422 33.0312C320.276 33.6354 320.203 34.25 320.203 34.875C320.203 35.1042 320.214 35.3333 320.234 35.5625C320.255 35.7917 320.297 36.0208 320.359 36.25C320.255 36.4375 320.203 36.6771 320.203 36.9688C320.203 37.3021 320.255 37.6146 320.359 37.9062C320.484 38.1771 320.63 38.4479 320.797 38.7188C321.089 38.7188 321.38 38.7083 321.672 38.6875C321.964 38.6667 322.266 38.6562 322.578 38.6562C322.87 38.6562 323.141 38.6875 323.391 38.75C323.641 38.7917 323.901 38.8958 324.172 39.0625ZM341.734 21.5C341.734 21.6875 341.651 21.8438 341.484 21.9688C341.339 22.0938 341.266 22.1875 341.266 22.25C341.266 22.375 341.286 22.4688 341.328 22.5312C341.37 22.5729 341.391 22.625 341.391 22.6875V22.8438C341.182 23.0521 341.026 23.2812 340.922 23.5312C340.818 23.7604 340.734 24.0104 340.672 24.2812C340.609 24.5312 340.547 24.7917 340.484 25.0625C340.443 25.3333 340.38 25.5938 340.297 25.8438C340.193 26.0938 340.057 26.3125 339.891 26.5C339.724 26.6667 339.589 26.8646 339.484 27.0938C339.318 27.4688 339.193 27.8542 339.109 28.25C339.026 28.6458 338.849 29.0104 338.578 29.3438V29.5C338.557 29.6458 338.599 29.7708 338.703 29.875C338.307 30.3958 337.995 31.0208 337.766 31.75C337.536 32.4583 337.349 33.2083 337.203 34C337.057 34.7708 336.932 35.5521 336.828 36.3438C336.724 37.1146 336.599 37.8125 336.453 38.4375C336.557 38.8958 336.714 39.3333 336.922 39.75C337.151 40.1458 337.37 40.5625 337.578 41C337.995 41.1042 338.391 41.25 338.766 41.4375C339.161 41.625 339.443 41.9271 339.609 42.3438C339.568 42.7604 339.432 43.0833 339.203 43.3125C338.974 43.5417 338.693 43.7812 338.359 44.0312C338.13 43.9479 337.943 43.875 337.797 43.8125C337.651 43.7708 337.432 43.7708 337.141 43.8125C336.745 43.5 336.37 43.25 336.016 43.0625C335.682 42.875 335.38 42.5521 335.109 42.0938C335.068 42.0312 335.005 42 334.922 42H334.641C334.536 41.75 334.411 41.4896 334.266 41.2188C334.12 40.9271 333.974 40.6354 333.828 40.3438C333.682 40.0312 333.557 39.7292 333.453 39.4375C333.349 39.125 333.297 38.8438 333.297 38.5938C333.297 37.5312 333.391 36.4792 333.578 35.4375C333.786 34.375 333.891 33.3021 333.891 32.2188V31.9062C333.474 32.0104 333.057 32.1562 332.641 32.3438C332.245 32.5312 331.839 32.6771 331.422 32.7812C331.276 32.8229 331.193 32.8958 331.172 33C331.151 33.1042 331.089 33.1875 330.984 33.25C330.776 33.2708 330.578 33.2917 330.391 33.3125C330.203 33.3125 330.026 33.3125 329.859 33.3125C329.505 33.3125 329.13 33.3021 328.734 33.2812C328.359 33.2396 327.984 33.1667 327.609 33.0625C327.234 32.9583 326.88 32.8125 326.547 32.625C326.234 32.4375 325.953 32.1979 325.703 31.9062C325.661 31.9271 325.609 31.9479 325.547 31.9688C325.484 31.9896 325.422 32 325.359 32C325.297 32 325.234 31.9896 325.172 31.9688C325.109 31.9479 325.057 31.9271 325.016 31.9062C324.849 31.6771 324.714 31.4271 324.609 31.1562L324.297 30.3438C324.193 30.0729 324.078 29.8125 323.953 29.5625C323.828 29.3125 323.661 29.0833 323.453 28.875C323.391 28.5 323.359 28.1354 323.359 27.7812C323.359 27.4062 323.391 27.0417 323.453 26.6875C323.495 26.3333 323.568 25.9792 323.672 25.625C323.589 25.375 323.536 25.1146 323.516 24.8438C323.474 24.5729 323.453 24.3021 323.453 24.0312C323.453 23.7188 323.484 23.3958 323.547 23.0625C323.609 22.7292 323.714 22.4271 323.859 22.1562C324.005 21.8646 324.214 21.625 324.484 21.4375C324.734 21.25 325.047 21.1562 325.422 21.1562C325.839 21.1562 326.224 21.2708 326.578 21.5C326.932 21.7083 327.276 21.9271 327.609 22.1562C327.651 22.4062 327.682 22.6562 327.703 22.9062C327.724 23.1354 327.734 23.3854 327.734 23.6562C327.734 24.1562 327.703 24.6667 327.641 25.1875C327.599 25.6875 327.578 26.1979 327.578 26.7188C327.578 27.2604 327.641 27.7708 327.766 28.25C327.911 28.7083 328.161 29.1458 328.516 29.5625H328.641C328.807 29.5417 328.953 29.5729 329.078 29.6562C329.203 29.7396 329.349 29.7812 329.516 29.7812C329.661 29.7812 329.776 29.7292 329.859 29.625C329.943 29.5 330.047 29.4375 330.172 29.4375C330.297 29.4375 330.391 29.4583 330.453 29.5C330.516 29.5417 330.568 29.5625 330.609 29.5625C330.839 29.5625 331.099 29.4792 331.391 29.3125C331.682 29.1458 331.87 28.9583 331.953 28.75C332.036 28.8125 332.141 28.8438 332.266 28.8438C332.432 28.8438 332.589 28.7917 332.734 28.6875C332.88 28.5833 333.068 28.5312 333.297 28.5312C333.422 28.5312 333.464 28.4583 333.422 28.3125C333.401 28.1458 333.443 28.0417 333.547 28C333.797 27.8958 334.068 27.75 334.359 27.5625C334.672 27.3542 334.922 27.2292 335.109 27.1875C335.214 26.9167 335.339 26.6667 335.484 26.4375C335.651 26.1875 335.818 25.9583 335.984 25.75C336.047 25.2708 336.172 24.8125 336.359 24.375C336.547 23.9375 336.745 23.5 336.953 23.0625C337.161 22.625 337.359 22.1875 337.547 21.75C337.734 21.3125 337.859 20.8542 337.922 20.375C338.151 20.1458 338.328 19.8958 338.453 19.625C338.599 19.3542 338.724 19.0833 338.828 18.8125C339.036 18.75 339.297 18.7188 339.609 18.7188C339.922 18.6979 340.193 18.6875 340.422 18.6875H340.953C341.016 18.8125 341.099 18.9271 341.203 19.0312L341.516 19.3438C341.328 19.6354 341.234 19.9271 341.234 20.2188C341.234 20.4479 341.286 20.6771 341.391 20.9062C341.495 21.1146 341.609 21.3125 341.734 21.5ZM371.953 39.0625C371.953 39.4167 371.859 39.7292 371.672 40C371.505 40.25 371.443 40.5625 371.484 40.9375C371.193 41.1042 370.953 41.3229 370.766 41.5938C370.578 41.8646 370.401 42.1458 370.234 42.4375C368.859 43.3333 367.38 44.0521 365.797 44.5938C364.234 45.1562 362.62 45.4375 360.953 45.4375C360.849 45.4375 360.755 45.3854 360.672 45.2812C360.589 45.1979 360.505 45.1042 360.422 45C360.339 44.8958 360.245 44.7917 360.141 44.6875C360.057 44.6042 359.953 44.5625 359.828 44.5625C359.682 44.5625 359.568 44.5938 359.484 44.6562C359.484 44.6146 359.484 44.5729 359.484 44.5312C359.505 44.5104 359.516 44.4792 359.516 44.4375C359.516 44.1875 359.484 43.9271 359.422 43.6562C359.359 43.4062 359.328 43.1562 359.328 42.9062C359.328 42.6146 359.38 42.375 359.484 42.1875H359.859C360.068 42.1875 360.266 42.1771 360.453 42.1562C360.661 42.1146 360.88 42.0938 361.109 42.0938C361.339 42.0938 361.547 42.1562 361.734 42.2812C362.88 42.2396 363.964 42.0312 364.984 41.6562C366.026 41.2604 367.078 40.875 368.141 40.5C368.307 40.2708 368.401 40.0208 368.422 39.75C368.464 39.4583 368.547 39.1875 368.672 38.9375C368.13 38.4792 367.578 38.125 367.016 37.875C366.474 37.6042 365.839 37.5104 365.109 37.5938C364.672 37.3229 364.203 37.1667 363.703 37.125C363.224 37.0833 362.734 37.0208 362.234 36.9375C362.109 36.9167 361.974 36.8958 361.828 36.875C361.703 36.8333 361.568 36.8125 361.422 36.8125C361.318 36.8125 361.214 36.8438 361.109 36.9062C361.026 36.9479 361.005 37.0208 361.047 37.125C360.943 36.9583 360.797 36.8646 360.609 36.8438C360.443 36.8021 360.297 36.7188 360.172 36.5938C359.505 36.5521 358.922 36.4375 358.422 36.25C357.922 36.0417 357.37 35.8125 356.766 35.5625C356.599 35.5 356.432 35.4583 356.266 35.4375C356.12 35.3958 355.974 35.3333 355.828 35.25C355.453 35.0625 355.151 34.8125 354.922 34.5C354.693 34.1875 354.516 33.8438 354.391 33.4688C354.245 33.0729 354.141 32.6667 354.078 32.25C354.016 31.8333 353.953 31.4479 353.891 31.0938C354.078 30.7604 354.255 30.4167 354.422 30.0625C354.568 29.7083 354.693 29.3333 354.797 28.9375C354.922 28.875 355.047 28.8229 355.172 28.7812C355.297 28.7396 355.432 28.6875 355.578 28.625C355.557 28.5833 355.547 28.5312 355.547 28.4688C355.547 28.3646 355.578 28.2604 355.641 28.1562C355.724 28.0521 355.745 27.9479 355.703 27.8438C356.161 27.4271 356.599 27 357.016 26.5625C357.453 26.1042 357.828 25.6042 358.141 25.0625C358.453 24.9583 358.703 24.8021 358.891 24.5938C359.078 24.3854 359.266 24.1771 359.453 23.9688C359.641 23.7396 359.849 23.5417 360.078 23.375C360.307 23.1875 360.599 23.0729 360.953 23.0312C361.036 22.8854 361.151 22.7708 361.297 22.6875C361.443 22.5833 361.589 22.4896 361.734 22.4062C361.88 22.3229 362.016 22.2292 362.141 22.125C362.266 22.0208 362.359 21.875 362.422 21.6875C362.755 21.6875 363.057 21.625 363.328 21.5C363.62 21.375 363.901 21.2396 364.172 21.0938C364.443 20.9479 364.714 20.8125 364.984 20.6875C365.276 20.5625 365.589 20.5 365.922 20.5C366.005 20.5 366.089 20.5104 366.172 20.5312C366.255 20.5312 366.349 20.5417 366.453 20.5625C366.599 20.7083 366.693 20.8854 366.734 21.0938C366.797 21.2812 366.839 21.4896 366.859 21.7188C366.88 21.9479 366.891 22.1771 366.891 22.4062C366.911 22.6354 366.953 22.8438 367.016 23.0312C366.828 23.3854 366.62 23.7396 366.391 24.0938C366.182 24.4479 365.901 24.7188 365.547 24.9062H365.484C365.339 24.9271 365.203 24.8958 365.078 24.8125C364.953 24.7292 364.807 24.6875 364.641 24.6875C364.536 24.6875 364.453 24.7188 364.391 24.7812L364.234 24.9375C364.193 24.9792 364.13 25.0208 364.047 25.0625C363.984 25.1042 363.891 25.1042 363.766 25.0625C363.474 25.1667 363.359 25.3438 363.422 25.5938C363.026 25.6354 362.693 25.7604 362.422 25.9688C362.151 26.1562 361.901 26.375 361.672 26.625C361.443 26.8542 361.214 27.0729 360.984 27.2812C360.755 27.4688 360.484 27.5729 360.172 27.5938C359.818 28.2188 359.38 28.7708 358.859 29.25C358.359 29.7292 357.943 30.2708 357.609 30.875C357.672 31.0417 357.714 31.2188 357.734 31.4062C357.755 31.5938 357.786 31.7917 357.828 32C358.016 32.25 358.234 32.4688 358.484 32.6562C358.755 32.8438 359.016 33.0312 359.266 33.2188H359.359C359.776 33.2188 360.161 33.3021 360.516 33.4688C360.87 33.6146 361.245 33.6875 361.641 33.6875C361.849 33.6875 362.026 33.6458 362.172 33.5625C362.714 33.6875 363.245 33.7917 363.766 33.875C364.307 33.9583 364.849 34.0208 365.391 34.0625C365.661 34.1042 365.932 34.125 366.203 34.125C366.495 34.125 366.766 34.1562 367.016 34.2188C367.245 34.2812 367.474 34.3646 367.703 34.4688C367.932 34.5521 368.161 34.6458 368.391 34.75C368.87 34.9583 369.318 35.1875 369.734 35.4375C370.172 35.6875 370.557 35.9896 370.891 36.3438C371.224 36.6771 371.484 37.0729 371.672 37.5312C371.859 37.9688 371.953 38.4792 371.953 39.0625ZM380.547 38.7188C380.443 38.8854 380.318 39.0417 380.172 39.1875C380.026 39.3125 379.891 39.4479 379.766 39.5938C379.62 39.6562 379.453 39.6875 379.266 39.6875C379.099 39.6875 378.932 39.6875 378.766 39.6875C378.62 39.6667 378.474 39.6667 378.328 39.6875C378.203 39.6875 378.099 39.7292 378.016 39.8125C377.849 39.7708 377.724 39.6979 377.641 39.5938C377.557 39.4688 377.411 39.3958 377.203 39.375C377.12 39.3542 377.036 39.3542 376.953 39.375C376.641 39.0208 376.349 38.6458 376.078 38.25C375.828 37.8542 375.589 37.4792 375.359 37.125C375.339 36.3542 375.276 35.5729 375.172 34.7812C375.151 34.5938 375.12 34.4062 375.078 34.2188C375.036 34.0312 375.005 33.8542 374.984 33.6875C374.984 33.4792 374.995 33.2812 375.016 33.0938C375.057 32.8854 375.089 32.6979 375.109 32.5312C375.193 31.9271 375.286 31.3333 375.391 30.75C375.495 30.1667 375.589 29.5729 375.672 28.9688C375.755 28.4271 375.797 27.8646 375.797 27.2812C375.797 26.6771 375.703 26.1146 375.516 25.5938L375.484 25.4375C375.526 25.2708 375.568 25.1354 375.609 25.0312C375.672 24.9062 375.714 24.7708 375.734 24.625C375.776 24.3958 375.724 24.2292 375.578 24.125C375.641 23.9583 375.745 23.8542 375.891 23.8125C376.036 23.75 376.12 23.625 376.141 23.4375C376.161 23.3542 376.161 23.2708 376.141 23.1875C376.307 23.125 376.474 23.0729 376.641 23.0312C376.828 22.9688 377.005 22.9583 377.172 23C377.443 23.0417 377.682 23.1354 377.891 23.2812C378.099 23.4062 378.297 23.5521 378.484 23.7188C378.818 24.7188 378.953 25.7812 378.891 26.9062C378.828 28.0104 378.724 29.125 378.578 30.25C378.432 31.375 378.339 32.4792 378.297 33.5625C378.255 34.625 378.422 35.6146 378.797 36.5312L378.859 36.5625C378.964 36.5833 379.047 36.5521 379.109 36.4688C379.172 36.3646 379.255 36.3229 379.359 36.3438C379.443 36.3854 379.495 36.4062 379.516 36.4062C379.599 36.8229 379.734 37.2188 379.922 37.5938C380.109 37.9688 380.318 38.3438 380.547 38.7188ZM395.557 46.712C395.557 47.1813 395.685 47.5333 395.941 47.768C396.197 48.024 396.549 48.152 396.997 48.152C397.36 48.152 397.659 48.12 397.893 48.056C398.149 48.0133 398.363 47.9813 398.533 47.96V49.752C398.235 49.8373 397.936 49.9013 397.637 49.944C397.339 50.008 396.976 50.04 396.549 50.04C395.419 50.04 394.587 49.7733 394.053 49.24C393.52 48.7067 393.253 47.9707 393.253 47.032C393.253 46.4133 393.403 45.816 393.701 45.24C394.021 44.664 394.405 44.1413 394.853 43.672C395.323 43.2027 395.771 42.8187 396.197 42.52L398.757 42.2C397.904 42.8827 397.243 43.48 396.773 43.992C396.304 44.504 395.984 44.9733 395.813 45.4C395.643 45.8267 395.557 46.264 395.557 46.712ZM392.453 25.528C393.925 25.528 395.184 25.848 396.229 26.488C397.296 27.128 398.107 28.0347 398.661 29.208C399.237 30.36 399.525 31.7147 399.525 33.272V34.968H387.781C387.824 36.9093 388.315 38.392 389.253 39.416C390.213 40.4187 391.547 40.92 393.253 40.92C394.341 40.92 395.301 40.824 396.133 40.632C396.987 40.4187 397.861 40.12 398.757 39.736V42.2C397.883 42.584 397.019 42.8613 396.165 43.032C395.312 43.224 394.299 43.32 393.125 43.32C391.504 43.32 390.064 42.9893 388.805 42.328C387.568 41.6667 386.597 40.6853 385.893 39.384C385.211 38.0613 384.869 36.4507 384.869 34.552C384.869 32.6747 385.179 31.064 385.797 29.72C386.437 28.376 387.323 27.3413 388.453 26.616C389.605 25.8907 390.939 25.528 392.453 25.528ZM392.421 27.832C391.077 27.832 390.011 28.2693 389.221 29.144C388.453 29.9973 387.995 31.192 387.845 32.728H396.581C396.581 31.7467 396.432 30.8933 396.133 30.168C395.835 29.4427 395.376 28.8773 394.757 28.472C394.16 28.0453 393.381 27.832 392.421 27.832Z" fill="black"/>
<rect x="0.5" y="0.5" width="72" height="59" fill="#C4C4C4" stroke="black"/>
<path d="M16.2471 26.8278C14.8659 28.3686 9.11624 28.4593 8.39654 29.8188C6.62275 29.109 1.85736 34.5439 2.33085 37.042C3.59011 43.6858 4.81564 42.9738 9.19762 42.5982C19.1309 40.423 17.5822 36.4821 16.2471 35.1662M6.47527 1.26892C5.40825 6.90247 6.09713 5.04498 8.0861 9.34368C10.1458 13.7952 19.1873 6.21741 25.9471 11.2481C34.7179 16.1828 32.844 17.1132 35.5138 20.1413C36.9641 21.7862 37.0556 25.5871 36.5687 27.8405C38.4351 33.0713 38.5169 41.4348 38.5169 45.4985C39.5583 49.5771 38.8373 49.9992 35.5138 58.7312M22.4975 29.8188C21.4615 28.1739 19.3655 43.2389 23.2572 49.9992L21.8069 58.7312M22.4975 29.8188C22.6861 27.8661 23.6037 28.1016 24.0175 27.3716L20.0121 21.7523L22.4975 29.8188ZM1.51318 22.8642C7.35519 23.4744 6.47527 19.339 8.81643 18.9426C9.25382 17.846 12.7115 15.1724 15.4705 16.4955C15.5691 16.7372 16.0388 17.1481 17.1283 16.858M20.8262 58.2617L21.8069 48.5908L22.4975 51.5953L20.8262 58.2617Z" stroke="black"/>
<path d="M28.746 38.2477L47.6637 17.6735L50.883 19.1601L55.4426 11.9944L53.3063 3.75146L67.9408 19.9171L59.723 18.4696L54.7156 21.8784L54.8982 27.0188L28.746 38.2477Z" fill="#C00000" stroke="black"/>
</svg>
